<svg width="255" height="189" viewBox="0 0 255 189" fill="none" xmlns="http://www.w3.org/2000/svg">
<g clip-path="url(#clip0)">
<path d="M183.5 112.121L185.506 110.883C185.697 110.762 185.885 110.633 186.078 110.513C181.776 109.772 177.855 107.585 174.965 104.312C172.075 101.04 170.389 96.8781 170.186 92.5163C170.039 89.5166 170.606 86.5246 171.84 83.7869C172.99 81.2253 174.687 78.9472 176.813 77.1131C178.938 75.279 181.44 73.9337 184.142 73.1718L184.043 81.0686L188.38 72.4735C188.398 72.4706 188.416 72.4706 188.434 72.4735C190.947 72.3561 193.458 72.735 195.825 73.5886C198.192 74.4422 200.368 75.7537 202.228 77.4482C204.088 79.1428 205.596 81.1872 206.666 83.4648C207.736 85.7423 208.347 88.2084 208.464 90.7221C208.48 91.0874 208.464 91.4473 208.464 91.7965C209.973 90.0748 211.343 88.2295 212.251 86.207C214.087 82.1108 214.13 77.4721 213.977 71.8342C213.687 60.6605 213.207 49.4035 212.578 38.1787C208.05 37.6757 203.849 35.5741 200.731 32.2514C197.613 28.9288 195.782 24.6029 195.566 20.0509C195.539 19.4627 195.547 18.8852 195.566 18.3104C195.566 18.168 195.566 18.023 195.587 17.8806C195.625 17.3246 195.676 16.774 195.762 16.2314C195.762 16.1401 195.794 16.0542 195.81 15.9628C195.889 15.5026 195.983 15.0478 196.092 14.5984C196.135 14.4318 196.176 14.2626 196.221 14.0961C196.356 13.6072 196.49 13.1264 196.675 12.651C196.731 12.4925 196.799 12.3394 196.858 12.1836C196.995 11.8345 197.142 11.4907 197.298 11.1495C197.381 10.9696 197.462 10.7923 197.551 10.6123C197.572 10.5667 197.591 10.521 197.615 10.4754C199.637 6.48085 202.994 3.3213 207.104 1.54589C211.213 -0.229507 215.814 -0.508493 220.108 0.757431L219.979 11.034L224.276 2.5463C227.8 4.56408 230.587 7.65608 232.23 11.3707C233.873 15.0853 234.285 19.228 233.406 23.1935H233.428C233.398 23.3305 233.355 23.4621 233.323 23.5964C233.264 23.8489 233.2 24.0987 233.13 24.3485C233.038 24.6681 232.936 24.9824 232.832 25.2967C232.751 25.5304 232.673 25.7694 232.585 26.0004C232.456 26.3388 232.316 26.6692 232.16 26.9996C232.074 27.193 231.997 27.3891 231.892 27.5798C231.646 28.074 231.378 28.5575 231.086 29.0302C230.987 29.194 230.874 29.3498 230.769 29.5137C230.565 29.8306 230.358 30.1449 230.136 30.4511C229.999 30.6391 229.851 30.8191 229.706 31.0044C229.496 31.273 229.282 31.5416 229.059 31.786C228.9 31.966 228.739 32.1433 228.573 32.3232C228.339 32.5703 228.097 32.8094 227.848 33.0458C227.684 33.2042 227.517 33.3627 227.345 33.5131C227.063 33.7629 226.768 34.002 226.47 34.2357C226.32 34.3538 226.174 34.4774 226.019 34.5902C225.566 34.9269 225.098 35.2429 224.614 35.5384C224.523 35.5921 224.426 35.6377 224.346 35.6915C223.943 35.9305 223.54 36.1535 223.108 36.363C222.928 36.4516 222.74 36.5295 222.555 36.6128C222.208 36.7686 221.859 36.919 221.502 37.056C221.295 37.1338 221.083 37.2064 220.871 37.2789C220.519 37.3998 220.162 37.5099 219.797 37.6093C219.582 37.6684 219.37 37.7275 219.152 37.7785C218.76 37.8725 218.36 37.9504 217.957 38.0175C217.93 38.0175 217.906 38.0175 217.879 38.0337C218.144 42.7682 218.38 47.5054 218.585 52.2452C219.728 49.8999 221.337 47.8127 223.315 46.1117C225.292 44.4107 227.596 43.1318 230.086 42.3533C232.575 41.5749 235.197 41.3134 237.791 41.5849C240.386 41.8564 242.897 42.6551 245.171 43.9321L241.785 53.2122L248.751 46.5214C252.48 49.94 254.701 54.6983 254.927 59.7526C255.016 61.5261 254.852 63.3031 254.441 65.0306C253.566 68.7688 251.588 72.1577 248.764 74.7576C245.939 77.3575 242.399 79.0485 238.602 79.6111C234.805 80.1736 230.926 79.5819 227.47 77.9126C224.013 76.2432 221.138 73.5734 219.217 70.2495C219.217 70.7303 219.251 71.2137 219.265 71.6945C219.391 76.669 219.55 82.8575 217.071 88.3853C215.393 92.1323 212.688 95.1755 210.016 97.9018C208.279 99.6772 206.477 101.394 204.629 103.056C202.813 105.496 200.441 107.468 197.712 108.81C194.677 111.148 191.535 113.338 188.286 115.38L186.312 116.653C184.489 117.783 182.62 118.944 180.785 120.144C181.108 120.112 181.427 120.077 181.755 120.064C185.815 119.874 189.83 120.979 193.221 123.221C196.611 125.463 199.201 128.724 200.617 132.535L188.646 142.282L201.804 139.228C201.801 142.469 200.976 145.655 199.407 148.49C197.838 151.325 195.577 153.716 192.833 155.44C190.09 157.164 186.955 158.164 183.72 158.347C180.486 158.529 177.258 157.889 174.338 156.486C174.633 156.857 174.931 157.225 175.227 157.593C175.815 158.326 176.4 159.054 176.972 159.776C184.76 169.642 186.93 179.011 183.071 186.153L178.382 183.617C182.142 176.666 176.502 167.77 172.788 163.08C172.227 162.371 171.652 161.657 171.072 160.931C166.096 154.754 160.457 147.738 160.599 139.14C160.8 126.193 173.392 118.385 183.5 112.121Z" fill="#F5EBDC"/>
<path d="M221.142 181.256C221.948 179.776 221.035 177.963 219.993 176.642C218.951 175.32 217.681 173.956 217.707 172.266C217.745 169.849 220.31 168.423 222.361 167.141C223.881 166.19 225.282 165.062 226.537 163.781C227.064 163.288 227.499 162.707 227.823 162.062C228.245 161.117 228.234 160.042 228.207 159.006C228.118 155.557 227.948 152.111 227.697 148.67" stroke="#3F3D56" stroke-width="4" stroke-miterlimit="10"/>
<path d="M231.594 148.487C231.564 147.856 231.376 147.243 231.048 146.703C230.719 146.163 230.261 145.715 229.714 145.398L228.871 147.069L228.895 145.049C228.318 144.876 227.708 144.844 227.117 144.956C226.525 145.068 225.969 145.321 225.496 145.693C225.022 146.064 224.644 146.544 224.395 147.092C224.145 147.64 224.031 148.24 224.061 148.842C224.108 149.839 224.549 150.777 225.288 151.449C225.653 151.781 226.081 152.039 226.546 152.206C227.011 152.374 227.504 152.448 227.998 152.425C228.492 152.401 228.976 152.281 229.423 152.071C229.871 151.86 230.272 151.564 230.605 151.198C230.937 150.832 231.195 150.405 231.362 149.94C231.53 149.475 231.604 148.981 231.58 148.487H231.594Z" fill="#57B793"/>
<path d="M224.872 174.004C224.477 174.771 223.831 175.379 223.042 175.726C222.253 176.073 221.368 176.138 220.536 175.91C219.705 175.682 218.977 175.175 218.474 174.474C217.972 173.774 217.725 172.921 217.776 172.06C217.827 171.2 218.173 170.382 218.754 169.746C219.336 169.109 220.119 168.692 220.972 168.564C221.824 168.436 222.695 168.605 223.438 169.043C224.181 169.481 224.751 170.161 225.052 170.969L222.7 172.884L225.288 172.282C225.289 172.881 225.146 173.472 224.872 174.004Z" fill="#57B793"/>
<path d="M223.011 166.674C222.517 166.698 222.022 166.624 221.557 166.456C221.091 166.288 220.663 166.03 220.297 165.696C219.931 165.363 219.635 164.96 219.425 164.512C219.215 164.063 219.096 163.578 219.074 163.083C219.044 162.493 219.156 161.905 219.399 161.367C219.625 160.863 219.958 160.414 220.376 160.053C220.793 159.692 221.285 159.427 221.816 159.277L221.797 160.832L222.651 159.14C223.65 159.093 224.627 159.445 225.366 160.119C226.105 160.792 226.547 161.732 226.594 162.731C226.64 163.73 226.288 164.707 225.615 165.446C224.941 166.186 224.002 166.627 223.003 166.674H223.011Z" fill="#57B793"/>
<path d="M232.16 160.574C231.163 160.621 230.188 160.27 229.45 159.598C228.712 158.926 228.271 157.988 228.224 156.991C228.177 155.994 228.528 155.019 229.199 154.28C229.871 153.542 230.809 153.1 231.806 153.053C232.511 153.019 233.211 153.184 233.825 153.531L233.159 155.358L234.529 154.042C235.264 154.714 235.702 155.65 235.748 156.645C235.765 156.993 235.733 157.342 235.652 157.681C235.464 158.478 235.021 159.191 234.391 159.713C233.761 160.235 232.978 160.538 232.16 160.574Z" fill="#57B793"/>
<path opacity="0.1" d="M231.086 149.481C230.216 149.578 229.37 149.849 228.498 149.903C227.625 149.956 226.666 149.747 226.113 149.067C225.815 148.702 225.667 148.24 225.415 147.842C225.177 147.471 224.851 147.164 224.467 146.948C224.239 147.423 224.114 147.941 224.1 148.468C224.086 148.995 224.182 149.519 224.383 150.006C224.584 150.493 224.886 150.933 225.268 151.296C225.649 151.659 226.103 151.938 226.6 152.114C227.096 152.291 227.625 152.361 228.15 152.32C228.675 152.279 229.186 152.128 229.649 151.877C230.113 151.626 230.518 151.28 230.839 150.862C231.16 150.444 231.39 149.964 231.513 149.451C231.368 149.457 231.226 149.467 231.086 149.481Z" fill="black"/>
<path opacity="0.1" d="M232.16 160.574C231.51 160.607 230.863 160.471 230.281 160.178C229.7 159.886 229.204 159.448 228.843 158.906C228.482 158.365 228.267 157.739 228.22 157.09C228.173 156.44 228.296 155.79 228.575 155.202C228.874 155.404 229.132 155.662 229.333 155.962C229.601 156.368 229.762 156.835 230.079 157.209C230.665 157.899 231.669 158.124 232.579 158.082C233.49 158.039 234.365 157.783 235.265 157.7C235.388 157.7 235.517 157.679 235.643 157.676C235.457 158.472 235.016 159.186 234.387 159.709C233.759 160.232 232.977 160.536 232.16 160.574Z" fill="black"/>
<path opacity="0.1" d="M223.011 166.674C222.517 166.698 222.022 166.624 221.557 166.456C221.091 166.288 220.663 166.03 220.297 165.696C219.931 165.363 219.635 164.96 219.425 164.512C219.215 164.063 219.096 163.578 219.074 163.083C219.044 162.493 219.156 161.905 219.399 161.366C219.712 161.571 219.985 161.83 220.205 162.132C220.498 162.546 220.68 163.021 221.011 163.402C221.647 164.112 222.716 164.361 223.68 164.337C224.644 164.313 225.511 164.087 226.44 164.018C226.211 164.759 225.759 165.412 225.145 165.887C224.532 166.363 223.786 166.637 223.011 166.674Z" fill="black"/>
<path opacity="0.1" d="M224.872 174.004C224.669 174.455 224.38 174.862 224.02 175.202C223.66 175.541 223.236 175.806 222.774 175.982C222.311 176.158 221.819 176.24 221.325 176.226C220.83 176.211 220.343 176.099 219.892 175.896C219.441 175.694 219.034 175.404 218.695 175.044C218.355 174.684 218.09 174.26 217.915 173.798C217.739 173.335 217.656 172.842 217.671 172.348C217.686 171.853 217.797 171.366 218 170.915C218.31 171.121 218.588 171.37 218.827 171.654C219.184 172.092 219.421 172.586 219.837 172.997C220.608 173.752 221.851 174.071 222.957 174.093C223.597 174.101 224.236 174.071 224.872 174.004Z" fill="black"/>
<path d="M215.46 179.551C215.46 179.551 218.432 179.459 219.329 178.82C220.226 178.181 223.895 177.418 224.128 178.444C224.362 179.47 228.6 183.547 225.24 183.564C221.881 183.58 217.436 183.026 216.542 182.489C215.648 181.952 215.46 179.551 215.46 179.551Z" fill="#656380"/>
<path opacity="0.2" d="M225.299 183.206C221.942 183.233 217.495 182.669 216.601 182.132C215.922 181.718 215.648 180.228 215.559 179.54H215.46C215.46 179.54 215.648 181.939 216.534 182.495C217.42 183.051 221.873 183.59 225.232 183.569C226.201 183.569 226.537 183.214 226.518 182.704C226.392 183.008 226.022 183.201 225.299 183.206Z" fill="black"/>
<path d="M52.2073 172.97C50.2576 169.36 52.4758 164.939 55.0109 161.721C57.5459 158.503 60.6502 155.156 60.5831 151.055C60.4864 145.162 54.2348 141.684 49.2399 138.56C45.5334 136.241 42.1144 133.492 39.0541 130.37C37.8268 129.116 36.6372 127.778 35.9228 126.177C34.8916 123.873 34.9185 121.254 34.9856 118.729C35.2005 110.313 35.6158 101.913 36.2317 93.5291" stroke="#3F3D56" stroke-width="4" stroke-miterlimit="10"/>
<path d="M26.7335 93.0698C26.807 91.5323 27.2656 90.0379 28.067 88.7238C28.8684 87.4097 29.9871 86.318 31.3202 85.549L33.3772 89.6183L33.3155 84.6922C35.1843 84.1414 37.1797 84.1989 39.0136 84.8564C40.8476 85.5139 42.4252 86.7374 43.5186 88.3502C44.6121 89.963 45.1647 91.8816 45.0969 93.829C45.029 95.7765 44.3441 97.652 43.1411 99.1847C41.938 100.717 40.2791 101.828 38.4038 102.356C36.5285 102.884 34.5339 102.803 32.708 102.123C30.8821 101.444 29.3194 100.201 28.2455 98.5754C27.1716 96.9495 26.6421 95.0244 26.7335 93.0779V93.0698Z" fill="#57B793"/>
<path d="M43.1198 155.267C44.0437 157.067 45.5362 158.513 47.3656 159.378C49.1951 160.243 51.2589 160.479 53.2366 160.051C55.2142 159.622 56.9949 158.552 58.3021 157.007C59.6092 155.462 60.3696 153.528 60.465 151.506C60.5292 150.235 60.3251 148.965 59.8662 147.778C59.1952 146.037 58.0105 144.542 56.4694 143.49C54.9283 142.439 53.1038 141.882 51.2385 141.893C49.3731 141.904 47.5552 142.482 46.0264 143.551C44.4976 144.62 43.3302 146.129 42.6794 147.877L48.4182 152.546L42.1048 151.077C42.1021 152.534 42.4503 153.972 43.1198 155.267Z" fill="#57B793"/>
<path d="M47.6556 137.426C49.9086 137.529 52.1207 136.8 53.8709 135.377C55.6212 133.955 56.7872 131.938 57.1471 129.711C57.507 127.484 57.0356 125.203 55.8227 123.301C54.6097 121.399 52.7399 120.01 50.5693 119.398L50.6176 123.182L48.5498 119.065H48.5257C46.091 118.951 43.7108 119.81 41.9089 121.451C40.107 123.093 39.0308 125.383 38.9172 127.818C38.8036 130.254 39.6619 132.634 41.3031 134.437C42.9444 136.239 45.2343 137.315 47.669 137.429L47.6556 137.426Z" fill="#57B793"/>
<path d="M25.3505 122.581C26.773 122.65 28.1922 122.388 29.4959 121.814C30.7997 121.241 31.9524 120.373 32.8631 119.277C33.7738 118.182 34.4175 116.89 34.7434 115.503C35.0692 114.117 35.0684 112.673 34.741 111.287C34.4135 109.901 33.7684 108.609 32.8565 107.515C31.9446 106.421 30.7909 105.554 29.4865 104.982C28.182 104.41 26.7626 104.149 25.3401 104.22C23.9177 104.291 22.5312 104.692 21.2901 105.39L22.9014 109.841L19.5741 106.626C18.6847 107.436 17.9636 108.413 17.4521 109.501C16.9406 110.59 16.6488 111.769 16.5933 112.97C16.5506 113.821 16.6293 114.672 16.8269 115.501C17.2837 117.448 18.3631 119.193 19.9015 120.47C21.4398 121.748 23.3529 122.489 25.3505 122.581Z" fill="#57B793"/>
<path opacity="0.1" d="M27.9687 95.5193C30.0902 95.753 32.1526 96.4111 34.2795 96.5427C36.4063 96.6743 38.7453 96.1667 40.0907 94.5121C40.8158 93.6203 41.1783 92.4922 41.7906 91.5199C42.3708 90.6139 43.166 89.8656 44.1054 89.3416C44.6904 90.5063 45.0211 91.7821 45.0754 93.0845C45.1297 94.3868 44.9065 95.6857 44.4205 96.8952C43.9346 98.1046 43.197 99.1968 42.2567 100.099C41.3165 101.002 40.1951 101.694 38.967 102.13C37.7388 102.566 36.432 102.735 35.1333 102.628C33.8346 102.52 32.5737 102.137 31.4343 101.504C30.2949 100.872 29.303 100.004 28.5244 98.9587C27.7459 97.9134 27.1986 96.7145 26.9187 95.4415C27.2759 95.4576 27.625 95.4817 27.9687 95.5193Z" fill="black"/>
<path opacity="0.1" d="M25.3504 122.581C26.9339 122.654 28.5093 122.316 29.9238 121.601C31.3383 120.885 32.5438 119.816 33.4234 118.497C34.3029 117.178 34.8267 115.654 34.9437 114.073C35.0608 112.492 34.7672 110.907 34.0915 109.473C33.362 109.964 32.7345 110.591 32.2439 111.321C31.5887 112.31 31.1939 113.451 30.4232 114.359C28.9919 116.04 26.5481 116.591 24.33 116.492C22.1118 116.392 19.9715 115.758 17.7641 115.557C17.458 115.53 17.1465 115.509 16.8376 115.501C17.2939 117.446 18.3718 119.19 19.9079 120.467C21.4441 121.745 23.3548 122.487 25.3504 122.581Z" fill="black"/>
<path opacity="0.1" d="M47.6556 137.426C49.2236 137.5 50.7843 137.17 52.1888 136.469C53.5934 135.768 54.7949 134.719 55.6787 133.421C56.5626 132.124 57.0993 130.622 57.2377 129.058C57.376 127.494 57.1115 125.92 56.4692 124.488C55.7126 124.991 55.0545 125.628 54.5276 126.368C53.8133 127.375 53.3675 128.536 52.5324 129.465C50.9829 131.192 48.378 131.802 46.0283 131.745C43.7537 131.697 41.5624 131.138 39.3013 130.964C39.8611 132.769 40.9634 134.358 42.4583 135.514C43.9531 136.671 45.7679 137.338 47.6556 137.426Z" fill="black"/>
<path opacity="0.1" d="M43.1199 155.267C44.0437 157.067 45.5363 158.513 47.3657 159.378C49.1951 160.243 51.259 160.479 53.2366 160.051C55.2143 159.622 56.995 158.552 58.3021 157.007C59.6092 155.462 60.3696 153.528 60.465 151.506C60.5292 150.235 60.3251 148.965 59.8662 147.778C59.1102 148.275 58.4315 148.88 57.8521 149.575C56.9794 150.649 56.402 151.847 55.3923 152.841C53.5125 154.684 50.4806 155.447 47.7818 155.527C46.224 155.533 44.6673 155.446 43.1199 155.267Z" fill="black"/>
<path d="M115.801 178.337L80.3533 185.589L79.5477 185.508L48.3967 182.366V142.881L86.5298 136.435L114.19 139.658L114.198 139.833L114.2 139.919L115.801 178.337Z" fill="#FFB648"/>
<path opacity="0.1" d="M115.801 178.337L80.3532 185.589L79.5476 185.508V145.03L114.198 139.833L115.801 178.337Z" fill="black"/>
<path opacity="0.05" d="M114.2 139.919L114.19 139.927L79.5477 145.03L48.3967 142.881L86.5298 136.435L114.19 139.658L114.198 139.833L114.2 139.919Z" fill="black"/>
<path d="M154.74 179.948L119.292 187.2L118.486 187.12L87.3354 183.977V144.493L125.469 138.047L153.128 141.27L153.136 141.444L153.139 141.53L154.74 179.948Z" fill="#EFEFEF"/>
<path opacity="0.1" d="M154.74 179.948L119.292 187.2L118.486 187.12V146.642L153.136 141.444L154.74 179.948Z" fill="black"/>
<path opacity="0.05" d="M153.139 141.53L153.128 141.538L118.486 146.642L87.3354 144.493L125.469 138.047L153.128 141.27L153.136 141.444L153.139 141.53Z" fill="black"/>
<path d="M130.302 141.27L94.8545 148.522L94.0489 148.442L62.8979 145.299V105.815L101.031 99.3684L128.691 102.592L128.699 102.766L128.702 102.852L130.302 141.27Z" fill="#F8F8F8"/>
<path opacity="0.1" d="M130.302 141.27L94.8547 148.522L94.0491 148.441V107.964L128.699 102.766L130.302 141.27Z" fill="black"/>
<path opacity="0.05" d="M128.702 102.852L128.691 102.86L94.0489 107.964L62.8979 105.815L101.031 99.3684L128.691 102.592L128.699 102.766L128.702 102.852Z" fill="black"/>
<path d="M150.443 142.924L131.943 146.712L131.521 146.669L115.264 145.028V124.421L135.166 121.055L149.602 122.739L149.608 122.83V122.873L150.443 142.924Z" fill="#F5EBDC"/>
<path opacity="0.1" d="M150.443 142.924L131.943 146.712L131.521 146.669V125.543L149.608 122.831L150.443 142.924Z" fill="black"/>
<path opacity="0.05" d="M149.608 122.873L149.602 122.879L131.521 125.543L115.264 124.421L135.166 121.055L149.602 122.739L149.608 122.83V122.873Z" fill="black"/>
<path d="M100.763 102.903L82.2627 106.688L81.8411 106.647L65.5835 105.006V84.3992L85.4852 81.0337L99.9221 82.7178L99.9274 82.8091V82.8521L100.763 102.903Z" fill="#F1F1F1"/>
<path opacity="0.1" d="M100.763 102.903L82.2627 106.688L81.8411 106.647V85.5219L99.9274 82.8091L100.763 102.903Z" fill="black"/>
<path opacity="0.05" d="M99.9274 82.8521L99.922 82.8575L81.8411 85.522L65.5835 84.3992L85.4852 81.0337L99.922 82.7178L99.9274 82.8091V82.8521Z" fill="black"/>
<path d="M133.256 102.097L114.756 105.882L114.335 105.842L98.0771 104.201V83.5936L117.979 80.228L132.416 81.9121L132.421 82.0035V82.0464L133.256 102.097Z" fill="#FFB648"/>
<path opacity="0.1" d="M133.256 102.097L114.756 105.882L114.335 105.842V84.7163L132.421 82.0034L133.256 102.097Z" fill="black"/>
<path opacity="0.05" d="M132.421 82.0464L132.416 82.0518L114.335 84.7163L98.0771 83.5936L117.979 80.228L132.416 81.9121L132.421 82.0035V82.0464Z" fill="black"/>
<path d="M142.924 81.4153L124.424 85.1998L124.002 85.1595L107.745 83.5184V62.9114L127.646 59.5459L142.083 61.23L142.089 61.3213V61.3643L142.924 81.4153Z" fill="#F1F1F1"/>
<path opacity="0.1" d="M142.924 81.4152L124.424 85.1998L124.002 85.1595V64.0341L142.089 61.3213L142.924 81.4152Z" fill="black"/>
<path opacity="0.05" d="M142.089 61.3643L142.083 61.3697L124.002 64.0342L107.745 62.9115L127.646 59.5459L142.083 61.23L142.089 61.3213V61.3643Z" fill="black"/>
<path d="M155.524 39.2881C155.328 41.034 153.996 42.4414 153.502 44.1229C152.761 46.6611 154.039 49.3874 155.801 51.375C157.22 52.9543 158.939 54.2362 160.858 55.1463C162.776 56.0564 164.856 56.5768 166.977 56.6772C167.6 56.7308 168.228 56.6624 168.825 56.4757C169.356 56.2594 169.835 55.9314 170.229 55.5141C171.551 54.1846 172.262 52.3447 172.544 50.4887C172.826 48.6326 172.719 46.7444 172.609 44.8722C172.608 44.4848 172.537 44.1006 172.399 43.7387C172.219 43.3946 171.972 43.0903 171.671 42.8443C170.719 41.9688 169.669 41.2055 168.543 40.5693C168.059 40.3007 167.541 40.0321 167.232 39.5674C167.02 39.1974 166.883 38.7895 166.827 38.3668L166.48 36.6048C166.419 36.0967 166.246 35.6086 165.973 35.1758C165.363 34.3539 164.195 34.2411 163.172 34.2008L159.412 34.0531C158.244 34.0074 156.708 33.6716 155.567 33.9026C154.493 34.1148 154.855 35.0979 155.049 35.9897C155.328 37.0682 155.488 38.1744 155.524 39.2881Z" fill="#FFC0C6"/>
<path opacity="0.1" d="M155.524 39.2881C155.328 41.034 153.996 42.4414 153.502 44.1229C152.761 46.6611 154.039 49.3874 155.801 51.375C157.22 52.9543 158.939 54.2362 160.858 55.1463C162.776 56.0564 164.856 56.5768 166.977 56.6772C167.6 56.7308 168.228 56.6624 168.825 56.4757C169.356 56.2594 169.835 55.9314 170.229 55.5141C171.551 54.1846 172.262 52.3447 172.544 50.4887C172.826 48.6326 172.719 46.7444 172.609 44.8722C172.608 44.4848 172.537 44.1006 172.399 43.7387C172.219 43.3946 171.972 43.0903 171.671 42.8443C170.719 41.9688 169.669 41.2055 168.543 40.5693C168.059 40.3007 167.541 40.0321 167.232 39.5674C167.02 39.1974 166.883 38.7895 166.827 38.3668L166.48 36.6048C166.419 36.0967 166.246 35.6086 165.973 35.1758C165.363 34.3539 164.195 34.2411 163.172 34.2008L159.412 34.0531C158.244 34.0074 156.708 33.6716 155.567 33.9026C154.493 34.1148 154.855 35.0979 155.049 35.9897C155.328 37.0682 155.488 38.1744 155.524 39.2881Z" fill="black"/>
<path d="M179.4 117.923L177.805 135.414C177.389 140.002 176.964 144.609 176.148 149.137C175.879 150.698 175.536 152.25 175.144 153.789C174.053 158.063 172.472 162.239 171.961 166.62C171.945 166.747 171.932 166.889 171.918 167.004C171.814 167.971 171.722 168.949 171.381 169.852C171.113 170.52 170.734 171.13 170.458 171.791C169.92 173.112 169.834 174.574 169.767 176.005C167.832 174.912 165.712 174.184 163.513 173.856C162.439 173.698 161.271 173.588 160.559 172.782C159.753 171.906 159.847 170.566 159.982 169.39C160.404 165.737 160.825 162.085 161.244 158.436C161.383 156.866 161.653 155.31 162.049 153.784C162.194 153.276 162.369 152.777 162.546 152.277C162.791 151.59 163.038 150.902 163.223 150.195C163.48 149.061 163.658 147.909 163.755 146.749C164.187 143.075 164.708 139.409 165.165 135.737L165.189 135.543C165.873 129.978 166.394 124.386 166.244 118.78C166.223 117.95 166.188 117.12 166.134 116.287C166.059 115.081 165.949 114.442 166.94 113.687C168.043 112.855 169.496 112.272 170.758 111.727C171.438 111.431 178.919 108.772 179.083 109.358C179.43 110.601 179.611 111.886 179.62 113.177C179.635 114.762 179.562 116.347 179.4 117.923Z" fill="#2F2E41"/>
<path opacity="0.1" d="M176.148 149.137C175.879 150.698 175.536 152.25 175.143 153.789C174.053 158.063 172.471 162.239 171.961 166.62C171.945 166.747 171.932 166.889 171.918 167.004C168.583 162.239 165.774 157.115 162.519 152.299C162.764 151.611 163.011 150.923 163.196 150.217C163.463 149.076 163.65 147.917 163.755 146.749C164.187 143.075 164.708 139.408 165.164 135.737L165.189 135.543C165.377 136.323 165.647 137.08 165.994 137.802C168.18 142.245 173.374 144.49 175.914 148.742C175.998 148.875 176.076 149.006 176.148 149.137Z" fill="black"/>
<path d="M149.084 110.077C149.194 113.639 149.764 117.171 150.333 120.69L151.506 127.942C152.148 131.917 152.82 135.97 154.699 139.529C156.107 142.194 158.131 144.466 159.966 146.854C164.472 152.726 167.858 159.379 172.131 165.422C173.374 167.179 175.149 169.081 177.268 168.713C178.659 168.474 179.669 167.313 180.759 166.422C182.048 165.369 183.6 164.598 184.615 163.276C185.63 161.955 185.829 159.763 184.454 158.823C183.984 158.503 183.412 158.382 182.88 158.178C180.751 157.372 179.37 155.288 178.495 153.182C177.62 151.076 177.085 148.818 175.917 146.859C173.377 142.608 168.18 140.362 165.994 135.917C164.77 133.429 164.652 130.545 164.56 127.786L164.321 120.719C164.294 119.946 164.276 119.143 164.59 118.436C165.425 116.556 167.949 116.379 169.996 116.14C172.316 115.869 174.564 115.16 176.621 114.05C177.799 113.413 178.949 112.602 179.575 111.42C180.149 110.346 180.227 109.081 180.294 107.861L181.003 95.052C181.065 93.9507 181.119 92.8092 180.735 91.7778C179.76 89.1831 176.484 88.3343 173.715 88.4579C168.564 88.6889 163.811 90.9048 158.945 92.4036C157.739 92.7743 156.528 93.1073 155.285 93.3571C154.211 93.5747 152.868 93.4861 151.837 93.8352C149.989 94.4584 150.035 98.5035 149.774 100.18C149.237 103.45 149.006 106.764 149.084 110.077Z" fill="#2F2E41"/>
<path d="M176.57 169.255C177.023 169.715 177.171 170.386 177.289 171.02C177.946 174.538 178.287 178.107 178.31 181.686C178.28 182.02 178.346 182.355 178.5 182.653C178.629 182.829 178.802 182.968 179.003 183.056C180.316 183.682 181.838 182.809 182.934 181.85C184.961 180.074 186.677 177.689 186.793 174.995C186.822 174.302 186.745 173.601 186.865 172.916C187.043 171.901 187.636 171.017 188.157 170.131C189.049 168.62 189.769 167.015 190.305 165.344C190.504 164.716 190.638 163.926 190.144 163.488C189.971 163.351 189.773 163.248 189.562 163.185L183.627 160.982C183.111 160.792 181.833 164.077 181.632 164.437C181.135 165.315 180.641 165.812 179.644 166.016C178.648 166.22 177.418 165.925 176.467 166.432C174.856 167.289 175.659 168.339 176.57 169.255Z" fill="#535070"/>
<path d="M167.417 171.283C167.307 171.064 167.154 170.869 166.966 170.711C166.692 170.536 166.38 170.43 166.056 170.402C164.928 170.209 163.591 170.083 162.809 170.923C162.079 171.71 162.205 172.991 161.595 173.878C161.402 174.146 161.139 174.388 160.972 174.684C160.765 175.136 160.673 175.632 160.704 176.129C160.672 177.496 160.639 178.868 160.736 180.233C160.814 181.377 161.005 182.578 161.722 183.475C162.871 184.915 164.944 185.121 166.781 185.213L168.271 185.291C168.681 185.339 169.096 185.3 169.491 185.178C169.735 185.065 169.954 184.905 170.135 184.706C170.316 184.507 170.455 184.274 170.543 184.02C171.319 182.092 170.092 180.015 169.335 178.081C168.462 175.855 168.618 173.386 167.417 171.283Z" fill="#535070"/>
<path d="M155.094 29.4438C155.075 29.2483 155.104 29.051 155.177 28.869C155.395 28.4849 155.964 28.6004 156.394 28.6971C158.121 29.1322 159.941 28.7373 161.722 28.8394C163.502 28.9415 165.505 29.8305 165.863 31.5764C167.154 30.6621 168.267 29.5187 169.147 28.2028C169.641 27.4642 170.071 26.6181 170.004 25.7317C169.907 24.4532 168.835 23.497 167.855 22.6858L164.901 20.2684C164.512 19.9114 164.063 19.6259 163.575 19.425C162.893 19.1913 162.146 19.3041 161.426 19.3041C159.278 19.3041 156.974 18.3237 155.059 19.3041C154.254 19.7151 153.655 20.4215 153.075 21.1091L150.435 24.2356C150.235 24.4349 150.089 24.6817 150.011 24.9528C149.935 25.3342 150.131 25.7102 150.201 26.0943C150.325 26.7927 150.024 27.5394 150.255 28.2109C150.639 29.3229 151.992 29.4814 152.82 30.1206C153.126 30.357 153.609 31.1655 153.977 31.1547C154.624 31.1413 155.075 29.9595 155.094 29.4438Z" fill="#3F3D56"/>
<path d="M159.573 38.6649C164.245 38.6649 168.032 34.8769 168.032 30.204C168.032 25.5312 164.245 21.7432 159.573 21.7432C154.902 21.7432 151.114 25.5312 151.114 30.204C151.114 34.8769 154.902 38.6649 159.573 38.6649Z" fill="#FFC0C6"/>
<path d="M161.555 48.7187C161.269 47.8986 160.729 47.1908 160.014 46.6974C159.299 46.204 158.446 45.9505 157.578 45.9736C157.329 46.0211 157.071 45.9882 156.842 45.8796C156.712 45.7804 156.608 45.6514 156.539 45.5035C156.026 44.5775 155.613 43.5997 155.306 42.5865C155.172 42.138 154.987 41.6088 154.533 41.4933C154.168 41.3993 153.794 41.6357 153.55 41.9231C153.333 42.2315 153.098 42.5266 152.846 42.8068C151.772 43.7576 149.892 42.89 148.767 43.763C148.582 43.9053 148.429 44.088 148.23 44.2196C148.037 44.3375 147.828 44.4279 147.61 44.4882C145.426 45.1989 143.284 46.0357 141.197 46.9942C141.949 51.5175 142.717 56.1266 144.479 60.3571C145.316 62.3716 146.264 64.3458 146.936 66.422C148.424 71.0232 148.488 75.9466 148.507 80.7841C148.507 84.0932 148.507 87.4722 147.433 90.604C147.191 91.3132 146.895 92.0169 146.828 92.7528C146.761 93.4888 146.981 94.3215 147.586 94.762C147.935 94.9927 148.337 95.1339 148.754 95.1729C150.609 95.4415 152.478 94.9527 154.305 94.5283C159.2 93.3948 164.195 92.7448 169.176 92.1109L177.528 91.0365C178.127 90.9946 178.714 90.8425 179.258 90.5879C180.786 89.7526 180.931 87.4534 179.98 85.9922C179.526 85.2911 178.884 84.7164 178.5 83.975C178.116 83.2337 178.087 82.1915 178.745 81.6785C180.087 80.631 179.685 78.689 179.749 76.9914C179.928 72.2426 179.904 67.4973 179.676 62.7557C179.608 61.7723 179.592 60.7861 179.628 59.8011C179.722 58.1304 180.136 56.4946 180.549 54.8696L183.087 44.8777C182.424 43.8301 181.153 43.164 179.953 42.8632C178.753 42.5624 177.499 42.4737 176.314 42.1057C173.897 41.3537 171.728 39.4466 169.195 39.6239C169.003 39.6273 168.814 39.6732 168.642 39.7582C168.073 40.0832 168.161 40.9051 168.126 41.5605C168.046 43.0136 166.977 44.225 165.801 45.0764C164.625 45.9279 163.277 46.5457 162.194 47.5153C162.006 47.657 161.852 47.8382 161.741 48.0461C161.631 48.254 161.567 48.4836 161.555 48.7187Z" fill="#3F3D56"/>
<path d="M128.039 58.1975C127.478 58.5618 126.883 58.8687 126.261 59.1134C125.67 59.3471 125.039 59.5324 124.556 59.9407C124.316 60.1484 124.115 60.3966 123.962 60.674C123.676 61.1819 123.531 61.7573 123.543 62.3402C123.555 62.9231 123.723 63.4921 124.03 63.9879C124.336 64.4836 124.771 64.888 125.287 65.1589C125.803 65.4297 126.382 65.557 126.964 65.5276C127.741 65.4873 128.474 65.173 129.185 64.8641L135.152 62.2668C136.162 61.829 137.252 61.3186 137.73 60.3248C137.785 60.2318 137.806 60.1226 137.789 60.0159C137.743 59.8989 137.655 59.8031 137.542 59.7473C136.198 58.8723 135.021 57.7623 134.07 56.4704C133.826 56.1374 133.533 55.353 133.178 55.1516C131.916 54.4506 129.051 57.5421 128.039 58.1975Z" fill="#FFC0C6"/>
<path d="M191.823 56.0889L194.022 58.603C194.495 59.1402 194.967 59.6774 195.397 60.2575C196.454 61.714 197.302 63.3116 197.916 65.0037C198.394 66.258 198.791 67.5957 198.625 68.9279C198.513 69.6109 198.329 70.28 198.074 70.9236C197.671 72.1609 197.171 73.3644 196.579 74.5228C196.084 75.4018 195.524 76.243 194.906 77.0396C193.202 79.2973 191.338 81.4293 189.328 83.4189C188.576 84.1629 188.254 85.3689 187.934 86.3734C187.33 88.2295 185.893 89.6772 184.505 91.0471C184.058 91.5192 183.564 91.9441 183.031 92.3149C182.231 92.8307 181.296 93.0963 180.345 93.0777C179.93 93.0801 179.519 92.9949 179.139 92.8279C178.189 92.3766 177.705 91.2781 177.606 90.2305C177.518 89.2787 177.677 88.3203 178.068 87.4478C179.33 84.6517 182.571 83.4403 184.862 81.399C186.205 80.2037 187.233 78.6996 188.248 77.2142C188.936 76.2858 189.51 75.2786 189.959 74.214C190.469 72.8468 190.27 71.2298 190.719 69.8438C190.907 69.2556 191.256 68.7265 191.447 68.1436C191.637 67.5607 191.702 66.8704 191.345 66.3682C191.077 66.0471 190.735 65.7963 190.348 65.6376C188.885 64.8962 187.247 63.94 186.967 62.3204C186.856 61.4234 187.09 60.5176 187.623 59.7875C188.153 59.0667 188.773 58.4168 189.468 57.8536C190.104 57.2788 191.181 56.6422 191.823 56.0889Z" fill="#FFC0C6"/>
<path d="M126.626 61.7053C126.239 60.9209 125.753 60.1205 124.969 59.7311C124.588 59.5664 124.176 59.4814 123.761 59.4814C123.345 59.4814 122.934 59.5664 122.552 59.7311C121.792 60.0597 121.081 60.4898 120.436 61.0096L118.54 62.409C118.11 62.6911 117.73 63.0423 117.415 63.4485C117.114 63.9412 116.915 64.4892 116.83 65.0601C116.561 66.3681 116.344 67.7138 116.532 69.038C116.832 71.1868 118.121 73.0455 119.539 74.6786C120.425 75.6939 121.521 76.72 122.869 76.7656C123.452 76.7844 124.099 76.5534 124.341 76.0243C124.425 75.8141 124.47 75.59 124.472 75.3635C124.617 72.9784 123.763 70.6496 122.77 68.4766C122.501 67.8857 122.211 67.2733 122.233 66.626C122.224 66.5161 122.253 66.4066 122.313 66.3144C122.399 66.2251 122.513 66.1689 122.636 66.156C123.997 65.8874 126.344 66.9456 127.297 65.4334C127.915 64.4342 127.066 62.5943 126.626 61.7053Z" fill="#FFC0C6"/>
<path d="M154.648 26.7819C154.631 26.5862 154.661 26.3893 154.734 26.2071C154.952 25.8203 155.521 25.9385 155.951 26.0352C157.677 26.4703 159.498 26.0755 161.279 26.1775C163.059 26.2796 165.06 27.1687 165.419 28.9146C166.71 27.9988 167.823 26.8556 168.704 25.541C169.198 24.7996 169.628 23.9535 169.56 23.0672C169.464 21.7886 168.39 20.8324 167.412 20.0239L164.458 17.6065C164.07 17.2496 163.622 16.964 163.134 16.7631C162.449 16.5295 161.706 16.6423 160.986 16.6423C158.838 16.6423 156.533 15.6619 154.619 16.6423C153.813 17.0532 153.214 17.7596 152.634 18.4473L149.992 21.5738C149.793 21.7735 149.648 22.0202 149.57 22.2909C149.495 22.6723 149.691 23.0484 149.761 23.4325C149.884 24.1308 149.584 24.8775 149.815 25.5463C150.199 26.661 151.552 26.8195 152.379 27.4588C152.685 27.6951 153.169 28.5036 153.536 28.4929C154.173 28.4794 154.624 27.2976 154.648 26.7819Z" fill="#3F3D56"/>
<path d="M136.683 49.9677C136.342 50.1891 136.042 50.4681 135.797 50.7923C135.488 51.2623 135.423 51.8667 135.158 52.3502C134.588 53.4084 133.254 53.7872 132.424 54.6547C132.289 54.7733 132.195 54.9312 132.155 55.106C132.15 55.3422 132.229 55.5726 132.378 55.756L136.39 62.0627C137.733 62.1809 139.006 61.3429 140.343 61.4557C140.84 61.496 141.353 61.6679 141.831 61.5201C142.172 61.3679 142.493 61.172 142.784 60.9373C143.59 60.4323 144.642 60.3732 145.311 59.7098C145.98 59.0463 146.036 58.0713 146.028 57.1662C146.04 56.3805 145.96 55.5962 145.789 54.8293C145.198 52.4119 143.348 50.5479 142.188 48.4044C141.621 47.3596 141.315 46.7499 140.12 47.467C138.925 48.1842 137.813 49.1404 136.683 49.9677Z" fill="#3F3D56"/>
<path d="M185.399 46.7792C186.153 47.2689 186.833 47.8641 187.419 48.5466C188.028 49.3336 188.375 50.3006 188.963 51.1064C189.551 51.9122 190.305 52.4923 190.95 53.2122C191.93 54.3027 192.593 55.6296 193.243 56.9484C191.652 59.0188 189.919 60.9754 188.055 62.8039C187.847 63.0484 187.573 63.2275 187.265 63.3196C187.057 63.342 186.846 63.3122 186.652 63.233C186.458 63.1538 186.287 63.0275 186.154 62.8657C185.864 62.5648 185.66 62.1888 185.383 61.8745C184.731 61.2023 183.863 60.7826 182.931 60.69C182.007 60.6 181.078 60.5865 180.152 60.6497C179.949 60.6738 179.743 60.6393 179.558 60.5503C179.421 60.4561 179.31 60.3286 179.236 60.1797C178.162 58.3317 178.498 56.011 178.882 53.8998L179.76 49.065C179.888 48.1419 180.134 47.2392 180.493 46.379C180.826 45.6672 181.567 44.4585 182.485 44.6734C183.404 44.8883 184.623 46.2205 185.399 46.7792Z" fill="#3F3D56"/>
<path d="M108.819 82.2209L90.3191 86.0055L89.8975 85.9652L73.6399 84.3241V63.7171L93.5416 60.3516L107.978 62.0357L107.984 62.127V62.17L108.819 82.2209Z" fill="#FFB648"/>
<path opacity="0.1" d="M108.819 82.2209L90.3191 86.0055L89.8975 85.9652V64.8398L107.984 62.127L108.819 82.2209Z" fill="black"/>
<path opacity="0.05" d="M107.984 62.17L107.978 62.1753L89.8975 64.8399L73.6399 63.7171L93.5416 60.3516L107.978 62.0357L107.984 62.127V62.17Z" fill="black"/>
<path d="M118.486 61.8073L99.9866 65.5946L99.5649 65.5516L83.3074 63.9105V43.3035L103.209 39.938L117.646 41.6221L117.651 41.7134V41.7564L118.486 61.8073Z" fill="white"/>
<path opacity="0.1" d="M118.486 61.8075L99.9863 65.5948L99.5647 65.5518V44.4265L117.651 41.7136L118.486 61.8075Z" fill="black"/>
<path opacity="0.05" d="M117.651 41.7564L117.646 41.7618L99.5649 44.4263L83.3074 43.3035L103.209 39.938L117.646 41.6221L117.651 41.7134V41.7564Z" fill="black"/>
</g>
<defs>
<clipPath id="clip0">
<rect width="255" height="189" fill="white"/>
</clipPath>
</defs>
</svg>
