<svg width="274" height="219" viewBox="0 0 274 219" fill="none" xmlns="http://www.w3.org/2000/svg">
    <circle cx="239.5" cy="119.5" r="34.5" fill="#575757" fill-opacity="0.06"/>
    <g clip-path="url(#clip0)">
        <path d="M58.1778 98.4804C67.2091 98.4804 74.5305 89.5067 74.5305 78.4371C74.5305 67.3675 67.2091 58.3938 58.1778 58.3938C49.1465 58.3938 41.8252 67.3675 41.8252 78.4371C41.8252 89.5067 49.1465 98.4804 58.1778 98.4804Z" fill="#2F2E41"/>
        <path d="M44.4981 206.272L35.0638 207.219C35.0638 207.219 31.9191 212.901 26.2586 212.901C20.5981 212.901 22.4849 219.214 30.6612 218.582C38.8375 217.951 47.6428 215.741 47.9573 215.11C48.2717 214.479 47.0138 205.957 44.4981 206.272Z" fill="#3F3D56"/>
        <path opacity="0.1" d="M44.4981 206.272L35.0638 207.219C35.0638 207.219 31.9191 212.901 26.2586 212.901C20.5981 212.901 22.4849 219.214 30.6612 218.582C38.8375 217.951 47.6428 215.741 47.9573 215.11C48.2717 214.479 47.0138 205.957 44.4981 206.272Z" fill="black"/>
        <path d="M31.2901 151.035C31.2901 151.035 41.9822 152.613 46.0703 157.663C50.1585 162.713 47.3282 138.409 47.3282 138.409L46.0703 127.362L37.5796 127.993L30.6611 142.197L31.2901 151.035Z" fill="#3F3D56"/>
        <path opacity="0.1" d="M31.2901 151.035C31.2901 151.035 41.9822 152.613 46.0703 157.663C50.1585 162.713 47.3282 138.409 47.3282 138.409L46.0703 127.362L37.5796 127.993L30.6611 142.197L31.2901 151.035Z" fill="black"/>
        <path d="M66.5113 87.9063C66.5113 87.9063 71.5429 74.0181 66.5113 73.7024C61.4797 73.3868 62.1087 87.2751 62.1087 87.2751L66.5113 87.9063Z" fill="#A0616A"/>
        <path d="M1.4624 44.1968L10.7969 40.0408C10.988 39.9557 11.2052 39.9503 11.4007 40.0258C11.5962 40.1012 11.754 40.2514 11.8394 40.4432L13.6347 44.4756C13.677 44.5705 13.7002 44.6729 13.7031 44.7767C13.7059 44.8806 13.6884 44.9839 13.6514 45.0809C13.6144 45.1778 13.5587 45.2664 13.4874 45.3417C13.4162 45.4169 13.3308 45.4774 13.2362 45.5195L3.90168 49.6755L1.4624 44.1968Z" fill="#FFB648"/>
        <path d="M0.691216 44.0508L10.1275 39.8494C10.3186 39.7644 10.5358 39.759 10.7313 39.8344C10.9268 39.9099 11.0846 40.06 11.17 40.2518L12.9653 44.2842C13.0076 44.3792 13.0308 44.4815 13.0337 44.5854C13.0366 44.6892 13.019 44.7926 12.982 44.8895C12.945 44.9865 12.8893 45.0751 12.818 45.1503C12.7468 45.2256 12.6614 45.286 12.5668 45.3281L3.1305 49.5295C2.92892 49.6192 2.6998 49.6249 2.49357 49.5453C2.28733 49.4657 2.12086 49.3073 2.03077 49.105L0.270813 45.152C0.180729 44.9497 0.174413 44.72 0.253254 44.5135C0.332095 44.307 0.489635 44.1405 0.691216 44.0508Z" fill="#2F2E41"/>
        <path d="M9.32541 44.1177C9.64274 43.9764 9.78502 43.6037 9.64322 43.2852C9.50141 42.9667 9.1292 42.823 8.81188 42.9643C8.49455 43.1056 8.35226 43.4783 8.49407 43.7968C8.63588 44.1153 9.00808 44.259 9.32541 44.1177Z" fill="#FFB648"/>
        <path d="M9 49.771C9 49.771 0.722949 37.8303 0.0607846 43.5519C-0.60138 49.2735 4.36485 54 4.36485 54L9 49.771Z" fill="#A0616A"/>
        <path d="M54.4072 84.7782C54.4072 84.7782 61.3221 85.2234 61.9511 89.0111C62.58 92.7988 56.9195 104.478 56.9195 104.478L49.3721 103.846L48.4287 96.2709L54.4072 84.7782Z" fill="#3F3D56"/>
        <path d="M45.756 73.7024C45.756 73.7024 48.2718 86.6438 40.0955 81.2779C31.9192 75.9119 43.2402 90.7471 43.2402 90.7471C43.2402 90.7471 52.0455 92.9566 54.8757 90.1158C57.706 87.2751 50.6303 86.8016 54.5613 75.5963C58.7871 63.5504 45.756 73.7024 45.756 73.7024Z" fill="#A0616A"/>
        <path opacity="0.1" d="M45.756 73.7024C45.756 73.7024 48.2718 86.6438 40.0955 81.2779C31.9192 75.9119 43.2402 90.7471 43.2402 90.7471C43.2402 90.7471 52.0455 92.9566 54.8757 90.1158C57.706 87.2751 50.6303 86.8016 54.5613 75.5963C58.7871 63.5504 45.756 73.7024 45.756 73.7024Z" fill="black"/>
        <path d="M17.9248 118.05C17.9248 118.05 25.0005 169.658 27.2018 172.814C29.4031 175.971 36.9505 204.378 36.9505 204.378L45.1268 201.538C44.5434 198.097 44.4376 194.591 44.8123 191.121C45.4412 185.44 40.0952 170.289 40.0952 170.289L32.2334 123.574L17.9248 118.05Z" fill="#2F2E41"/>
        <path opacity="0.1" d="M17.9248 118.05C17.9248 118.05 25.0005 169.658 27.2018 172.814C29.4031 175.971 36.9505 204.378 36.9505 204.378L45.1268 201.538C44.5434 198.097 44.4376 194.591 44.8123 191.121C45.4412 185.44 40.0952 170.289 40.0952 170.289L32.2334 123.574L17.9248 118.05Z" fill="black"/>
        <path d="M16.1956 115.683L23.114 135.568C23.114 135.568 8.64823 161.767 20.5982 170.289C20.5982 170.289 34.4351 185.44 35.693 198.697C35.693 198.697 42.9259 198.065 43.8693 192.384C43.8693 192.384 37.2653 177.864 36.9509 172.814C36.6364 167.764 29.4035 161.767 29.4035 161.767C29.4035 161.767 43.2403 139.356 46.3851 135.568C49.5298 131.781 49.8443 117.261 41.9824 117.261C34.1206 117.261 16.1956 115.683 16.1956 115.683Z" fill="#2F2E41"/>
        <path d="M43.2399 192.384C43.2399 192.384 37.8938 199.012 36.3215 198.065C36.3215 198.065 35.0636 211.638 32.2333 215.426C29.403 219.213 38.2083 218.898 41.353 215.426C44.4978 211.954 50.4728 198.697 50.4728 197.119C50.4728 195.54 45.1267 191.437 43.2399 192.384Z" fill="#3F3D56"/>
        <path d="M51.1021 79.0683C55.7915 79.0683 59.5929 75.2528 59.5929 70.546C59.5929 65.8393 55.7915 62.0237 51.1021 62.0237C46.4128 62.0237 42.6113 65.8393 42.6113 70.546C42.6113 75.2528 46.4128 79.0683 51.1021 79.0683Z" fill="#A0616A"/>
        <path d="M41.9824 80.6466C41.9824 80.6466 42.2968 86.0125 47.0139 87.2751C51.731 88.5376 55.5047 85.3812 55.5047 85.3812L56.7626 87.9063L52.6745 98.0069L45.1271 122.627C45.1271 122.627 22.7995 125.783 20.9126 120.417C19.0258 115.052 24.0574 99.9007 24.0574 99.9007L31.2903 89.4846L34.1205 82.5404L37.2653 79.0684L41.9824 80.6466Z" fill="#FFB648"/>
        <path d="M43.869 81.9091C43.869 81.9091 38.9947 77.0166 35.8499 77.0166C32.7052 77.0166 30.0322 74.965 30.0322 74.965C30.0322 74.965 19.6545 90.1158 13.3651 108.423C7.07558 126.73 -1.72968 132.412 2.67295 136.831C7.07558 141.25 13.994 140.303 16.8243 145.038C19.6545 149.772 19.6545 149.141 21.5414 141.881C23.4282 134.621 21.2269 114.736 30.3466 106.214C39.4664 97.6912 43.869 81.9091 43.869 81.9091Z" fill="#3F3D56"/>
        <path d="M30.9758 75.912C30.9758 75.912 18.3968 64.5488 16.8245 59.8142C15.2521 55.0796 9.27709 46.2416 8.01919 47.5042C6.7613 48.7667 -0.157122 51.6075 1.41525 53.817C2.98761 56.0265 6.7613 58.8673 8.96261 66.7583C11.1639 74.6494 26.5731 84.7499 26.5731 84.7499L30.9758 75.912Z" fill="#3F3D56"/>
        <path d="M53.9322 84.75C53.9322 84.75 48.5861 85.0656 45.4414 101.795C42.2967 118.524 42.6111 157.663 45.4414 160.82C45.4414 160.82 48.2717 164.292 48.5861 157.979C48.9006 151.666 53.6177 122.311 52.3598 114.736C51.1019 107.161 53.9322 90.7472 58.0203 87.9064C62.1085 85.0656 53.9322 84.75 53.9322 84.75Z" fill="#3F3D56"/>
        <path d="M51.1018 98.6382C51.1018 98.6382 61.4794 103.373 61.1649 106.845C60.8505 110.317 60.536 117.261 47.6426 105.898L51.1018 98.6382Z" fill="#3F3D56"/>
        <path d="M54.8754 98.6382C54.8754 98.6382 50.4727 109.054 56.1333 110.948C61.7938 112.842 63.3661 102.11 63.3661 102.11C63.3661 102.11 67.7688 90.1159 67.4543 87.5908C67.1398 85.0656 60.8504 84.75 60.2214 86.3282C59.5925 87.9064 54.8754 98.6382 54.8754 98.6382Z" fill="#3F3D56"/>
        <path d="M58.1775 93.1144C60.2616 93.1144 61.9512 86.8964 61.9512 79.2261C61.9512 71.5559 60.2616 65.3379 58.1775 65.3379C56.0933 65.3379 54.4038 71.5559 54.4038 79.2261C54.4038 86.8964 56.0933 93.1144 58.1775 93.1144Z" fill="#2F2E41"/>
        <path d="M55.3474 69.1256C61.5999 69.1256 66.6685 66.6525 66.6685 63.6019C66.6685 60.5512 61.5999 58.0781 55.3474 58.0781C49.095 58.0781 44.0264 60.5512 44.0264 63.6019C44.0264 66.6525 49.095 69.1256 55.3474 69.1256Z" fill="#2F2E41"/>
        <path opacity="0.1" d="M56.2908 68.4944C50.0384 68.4944 44.9698 66.0213 44.9698 62.9707C44.9698 61.8949 45.6022 60.8918 46.6923 60.0428C45.0299 61.0042 44.0264 62.2456 44.0264 63.6019C44.0264 66.6526 49.095 69.1257 55.3474 69.1257C59.3952 69.1257 59.7635 68.4944 56.2908 68.4944Z" fill="black"/>
        <path d="M70.6349 179.053C71.5296 179.531 72.5227 179.794 73.536 179.821C74.5493 179.849 75.555 179.639 76.4739 179.21C77.3928 178.78 78.1997 178.142 78.8312 177.347C79.4626 176.551 79.9012 175.618 80.1124 174.623C80.3237 173.628 80.3018 172.598 80.0485 171.613C79.7951 170.627 79.3173 169.715 78.6527 168.947C77.988 168.179 77.1547 167.576 76.2184 167.186C75.2821 166.796 74.2684 166.63 73.2572 166.701L72.9473 170.072L71.7739 166.978C70.1221 167.489 68.7397 168.637 67.9306 170.169C67.6444 170.706 67.4353 171.28 67.3097 171.876C67.0112 173.272 67.1743 174.728 67.7743 176.024C68.3743 177.319 69.3786 178.382 70.6349 179.053Z" fill="#57B894"/>
        <path d="M72.9672 218.992C72.8117 216.065 75.5815 213.884 78.1972 212.582C80.813 211.28 83.8262 210.064 85.0325 207.395C86.766 203.56 83.8002 199.4 81.5352 195.855C79.8549 193.224 78.4912 190.402 77.4727 187.449C77.0644 186.265 76.7089 185.037 76.7342 183.785C76.7707 181.98 77.5873 180.296 78.3979 178.685C81.0982 173.32 83.9237 168.02 86.8743 162.787" stroke="#3F3D56" stroke-miterlimit="10"/>
        <path d="M71.0231 178.229C71.9178 178.707 72.9109 178.97 73.9242 178.997C74.9374 179.025 75.9432 178.815 76.8621 178.386C77.781 177.956 78.5879 177.319 79.2193 176.523C79.8508 175.727 80.2894 174.795 80.5006 173.799C80.7119 172.804 80.69 171.774 80.4367 170.789C80.1833 169.804 79.7055 168.891 79.0409 168.123C78.3762 167.355 77.5429 166.752 76.6066 166.362C75.6703 165.972 74.6566 165.806 73.6454 165.877L73.3355 169.248L72.162 166.154C70.5103 166.665 69.1279 167.813 68.3188 169.345C68.0326 169.882 67.8235 170.457 67.6979 171.052C67.3993 172.448 67.5624 173.905 68.1625 175.2C68.7625 176.495 69.7668 177.558 71.0231 178.229Z" stroke="#3F3D56" stroke-miterlimit="10"/>
        <path d="M80.3823 160.685C80.897 159.713 81.6473 158.886 82.5641 158.281C83.4809 157.676 84.5347 157.312 85.6283 157.223L85.713 160.482L87.1736 157.28C88.5442 157.495 89.8111 158.142 90.7914 159.128C91.7716 160.113 92.4145 161.386 92.6272 162.762C92.8399 164.138 92.6115 165.546 91.9748 166.783C91.3381 168.021 90.3262 169.023 89.0852 169.645C87.8441 170.267 86.4381 170.478 85.0701 170.246C83.7022 170.014 82.4431 169.351 81.4746 168.354C80.5062 167.357 79.8784 166.077 79.6821 164.699C79.4857 163.32 79.7309 161.915 80.3823 160.685Z" fill="#57B894"/>
        <path d="M80.9003 159.586C81.4151 158.614 82.1654 157.787 83.0822 157.182C83.999 156.577 85.0527 156.213 86.1463 156.125L86.231 159.383L87.6917 156.181C89.0623 156.396 90.3292 157.044 91.3094 158.029C92.2897 159.014 92.9326 160.287 93.1453 161.663C93.358 163.039 93.1295 164.447 92.4929 165.685C91.8562 166.922 90.8443 167.924 89.6032 168.546C88.3622 169.169 86.9561 169.379 85.5882 169.147C84.2203 168.915 82.9612 168.253 81.9927 167.256C81.0242 166.258 80.3965 164.978 80.2002 163.6C80.0038 162.221 80.249 160.816 80.9003 159.586Z" stroke="#3F3D56" stroke-miterlimit="10"/>
        <path d="M80.3883 195.758C81.8074 196.515 83.4544 196.722 85.0154 196.338C86.5765 195.955 87.9424 195.009 88.8529 193.679C89.7633 192.35 90.1546 190.731 89.9522 189.131C89.7498 187.531 88.9678 186.061 87.7553 185.002L86.6329 187.463L86.548 184.166C86.543 184.163 86.5378 184.16 86.5324 184.158C85.7735 183.752 84.9424 183.501 84.0866 183.417C83.2308 183.334 82.367 183.421 81.5448 183.674C80.7225 183.926 79.9577 184.338 79.2943 184.887C78.6308 185.436 78.0815 186.11 77.6779 186.872C77.2743 187.634 77.0243 188.469 76.9421 189.328C76.8599 190.187 76.9471 191.054 77.1988 191.879C77.4505 192.704 77.8618 193.471 78.409 194.137C78.9563 194.803 79.6289 195.353 80.3883 195.758V195.758Z" fill="#57B894"/>
        <path d="M80.8609 194.638C82.28 195.395 83.927 195.601 85.488 195.218C87.0491 194.835 88.415 193.888 89.3255 192.559C90.2359 191.23 90.6272 189.611 90.4248 188.01C90.2224 186.41 89.4404 184.941 88.2278 183.882L87.1055 186.343L87.0206 183.046C87.0156 183.043 87.0104 183.04 87.005 183.037C86.2461 182.632 85.415 182.381 84.5593 182.298C83.7036 182.215 82.84 182.302 82.0178 182.554C81.1957 182.806 80.431 183.218 79.7677 183.767C79.1043 184.316 78.5551 184.991 78.1516 185.753C77.748 186.515 77.498 187.349 77.4158 188.208C77.3335 189.067 77.4207 189.933 77.6723 190.759C77.9239 191.584 78.335 192.351 78.8821 193.017C79.4292 193.682 80.1016 194.233 80.8609 194.638V194.638Z" stroke="#3F3D56" stroke-miterlimit="10"/>
        <path d="M72.1184 205.601C72.1684 207.107 72.7327 208.549 73.7165 209.687C74.7003 210.824 76.0439 211.587 77.5219 211.849C78.9999 212.11 80.5224 211.853 81.8342 211.121C83.1459 210.389 84.1671 209.227 84.7264 207.829C85.2857 206.432 85.3492 204.883 84.9061 203.444C84.4631 202.005 83.5406 200.762 82.2931 199.925C81.0457 199.087 79.5494 198.706 78.055 198.844C76.5606 198.983 75.1591 199.633 74.0855 200.685L76.3576 205.457L72.739 202.582C72.2942 203.524 72.0813 204.559 72.1184 205.601Z" fill="#57B894"/>
        <path d="M72.5071 204.777C72.5571 206.283 73.1213 207.725 74.1052 208.862C75.089 210 76.4326 210.763 77.9106 211.025C79.3886 211.286 80.9111 211.029 82.2228 210.297C83.5346 209.565 84.5557 208.403 85.1151 207.005C85.6744 205.607 85.7379 204.059 85.2948 202.62C84.8518 201.181 83.9292 199.938 82.6818 199.101C81.4344 198.263 79.9381 197.882 78.4437 198.02C76.9493 198.159 75.5478 198.809 74.4742 199.861L76.7462 204.633L73.1277 201.758C72.6828 202.7 72.47 203.735 72.5071 204.777V204.777Z" stroke="#3F3D56" stroke-miterlimit="10"/>
        <path d="M203.307 35.8253H109.594V97.6912H203.307V35.8253Z" fill="#F2F2F2"/>
        <path d="M238.843 0.157837H86.9521V120.418H238.843V0.157837Z" stroke="#3F3D56" stroke-miterlimit="10"/>
        <path d="M87.1094 7.10193H239" stroke="#3F3D56" stroke-miterlimit="10"/>
        <path d="M90.0968 5.52373C90.9652 5.52373 91.6692 4.81714 91.6692 3.94552C91.6692 3.0739 90.9652 2.36731 90.0968 2.36731C89.2284 2.36731 88.5244 3.0739 88.5244 3.94552C88.5244 4.81714 89.2284 5.52373 90.0968 5.52373Z" fill="#F86B75"/>
        <path d="M94.4996 5.52373C95.368 5.52373 96.072 4.81714 96.072 3.94552C96.072 3.0739 95.368 2.36731 94.4996 2.36731C93.6312 2.36731 92.9272 3.0739 92.9272 3.94552C92.9272 4.81714 93.6312 5.52373 94.4996 5.52373Z" fill="#FAD375"/>
        <path d="M98.902 5.52373C99.7704 5.52373 100.474 4.81714 100.474 3.94552C100.474 3.0739 99.7704 2.36731 98.902 2.36731C98.0336 2.36731 97.3296 3.0739 97.3296 3.94552C97.3296 4.81714 98.0336 5.52373 98.902 5.52373Z" fill="#8BCC55"/>
        <path d="M90.7257 4.57683C91.5941 4.57683 92.2981 3.87024 92.2981 2.99862C92.2981 2.127 91.5941 1.42041 90.7257 1.42041C89.8573 1.42041 89.1533 2.127 89.1533 2.99862C89.1533 3.87024 89.8573 4.57683 90.7257 4.57683Z" stroke="#3F3D56" stroke-miterlimit="10"/>
        <path d="M95.1285 4.57683C95.9969 4.57683 96.7009 3.87024 96.7009 2.99862C96.7009 2.127 95.9969 1.42041 95.1285 1.42041C94.2601 1.42041 93.5562 2.127 93.5562 2.99862C93.5562 3.87024 94.2601 4.57683 95.1285 4.57683Z" stroke="#3F3D56" stroke-miterlimit="10"/>
        <path d="M99.5309 4.57683C100.399 4.57683 101.103 3.87024 101.103 2.99862C101.103 2.127 100.399 1.42041 99.5309 1.42041C98.6625 1.42041 97.9585 2.127 97.9585 2.99862C97.9585 3.87024 98.6625 4.57683 99.5309 4.57683Z" stroke="#3F3D56" stroke-miterlimit="10"/>
        <path d="M210.698 29.0391H116.984V90.9049H210.698V29.0391Z" stroke="#3F3D56" stroke-miterlimit="10"/>
        <path d="M209.125 104.478H191.829V109.212H209.125V104.478Z" fill="#FFB648"/>
        <path d="M210.697 103.215H193.401V107.95H210.697V103.215Z" stroke="#3F3D56" stroke-miterlimit="10"/>
        <path d="M164.907 65.1946L157.671 57.7096C157.513 57.5499 157.325 57.4242 157.117 57.3403C156.909 57.2564 156.686 57.2161 156.462 57.2218H156.44C156.216 57.2161 155.993 57.2564 155.785 57.3403C155.577 57.4242 155.388 57.5499 155.23 57.7096L147.995 65.1946C147.835 65.3446 147.707 65.5258 147.62 65.7272C147.533 65.9286 147.488 66.1458 147.488 66.3654C147.488 66.5849 147.533 66.8021 147.62 67.0035C147.707 67.2049 147.835 67.3861 147.995 67.5361C148.325 67.8469 148.762 68.0198 149.215 68.0198C149.668 68.0198 150.104 67.8469 150.435 67.5361L154.723 63.0375V74.6362C154.743 75.0828 154.933 75.5044 155.255 75.8134C155.577 76.1223 156.005 76.2947 156.451 76.2947C156.896 76.2947 157.324 76.1223 157.646 75.8134C157.968 75.5044 158.159 75.0828 158.179 74.6362V63.0375L162.466 67.5361C162.797 67.8469 163.233 68.0198 163.687 68.0198C164.14 68.0198 164.576 67.8469 164.907 67.5361C165.067 67.3861 165.194 67.2049 165.281 67.0035C165.368 66.8021 165.413 66.5849 165.413 66.3654C165.413 66.1458 165.368 65.9286 165.281 65.7272C165.194 65.5258 165.067 65.3446 164.907 65.1946Z" fill="#FFB648"/>
    </g>
    <defs>
        <clipPath id="clip0">
            <rect width="239" height="219" fill="white"/>
        </clipPath>
    </defs>
</svg>
