<svg width="59" height="60" viewBox="0 0 59 60" fill="none" xmlns="http://www.w3.org/2000/svg">
<path d="M7.7728 35.2728C8.14446 35.2728 8.44575 34.9715 8.44575 34.5998C8.44575 34.2282 8.14446 33.9269 7.7728 33.9269C7.40114 33.9269 7.09985 34.2282 7.09985 34.5998C7.09985 34.9715 7.40114 35.2728 7.7728 35.2728Z" fill="white"/>
<path d="M52.4216 16.3093C52.7056 16.3093 52.9358 16.0791 52.9358 15.7952C52.9358 15.5112 52.7056 15.281 52.4216 15.281C52.1377 15.281 51.9075 15.5112 51.9075 15.7952C51.9075 16.0791 52.1377 16.3093 52.4216 16.3093Z" fill="white"/>
<path d="M50.4332 2.07905C50.8049 2.07905 51.1061 1.77776 51.1061 1.4061C51.1061 1.03444 50.8049 0.733154 50.4332 0.733154C50.0615 0.733154 49.7603 1.03444 49.7603 1.4061C49.7603 1.77776 50.0615 2.07905 50.4332 2.07905Z" fill="#F1BC19"/>
<path d="M8.15097 41.0801C8.52263 41.0801 8.82392 40.7789 8.82392 40.4072C8.82392 40.0355 8.52263 39.7343 8.15097 39.7343C7.77932 39.7343 7.47803 40.0355 7.47803 40.4072C7.47803 40.7789 7.77932 41.0801 8.15097 41.0801Z" fill="#F1BC19"/>
<path d="M30.1085 57.8736C45.7474 57.8736 58.4252 45.1958 58.4252 29.5569C58.4252 13.918 45.7474 1.24023 30.1085 1.24023C14.4697 1.24023 1.79187 13.918 1.79187 29.5569C1.79187 45.1958 14.4697 57.8736 30.1085 57.8736Z" fill="#E0AD51" fill-opacity="0.2"/>
<path d="M54.554 6.06407C56.2286 6.06407 57.5861 4.70658 57.5861 3.03204C57.5861 1.35749 56.2286 0 54.554 0C52.8795 0 51.522 1.35749 51.522 3.03204C51.522 4.70658 52.8795 6.06407 54.554 6.06407Z" fill="#F1BC19"/>
<path d="M57.5785 11.3118C58.3636 11.3118 59 10.6753 59 9.89025C59 9.10518 58.3636 8.46875 57.5785 8.46875C56.7934 8.46875 56.157 9.10518 56.157 9.89025C56.157 10.6753 56.7934 11.3118 57.5785 11.3118Z" fill="#AA234C"/>
<path d="M3.03204 42.7662C4.70659 42.7662 6.06408 41.4087 6.06408 39.7342C6.06408 38.0596 4.70659 36.7021 3.03204 36.7021C1.35749 36.7021 0 38.0596 0 39.7342C0 41.4087 1.35749 42.7662 3.03204 42.7662Z" fill="#E0AD51"/>
<path d="M10.7672 59.4082C11.5523 59.4082 12.1887 58.7718 12.1887 57.9867C12.1887 57.2016 11.5523 56.5652 10.7672 56.5652C9.98213 56.5652 9.3457 57.2016 9.3457 57.9867C9.3457 58.7718 9.98213 59.4082 10.7672 59.4082Z" fill="#AA234C"/>
<path d="M50.1891 15.5932C50.9408 15.5932 51.5502 14.9839 51.5502 14.2322C51.5502 13.4806 50.9408 12.8712 50.1891 12.8712C49.4375 12.8712 48.8281 13.4806 48.8281 14.2322C48.8281 14.9839 49.4375 15.5932 50.1891 15.5932Z" fill="white"/>
<path d="M5.85987 32.4979C6.92056 32.4979 7.78042 31.6381 7.78042 30.5774C7.78042 29.5167 6.92056 28.6569 5.85987 28.6569C4.79919 28.6569 3.93933 29.5167 3.93933 30.5774C3.93933 31.6381 4.79919 32.4979 5.85987 32.4979Z" fill="white"/>
<path d="M47.5637 14.4208C46.6744 13.5156 45.4684 13.0071 44.2108 13.0071H30.6595C29.9228 13.0071 29.3861 13.007 28.6954 13.364L11.0474 31.3281C10.4187 31.9682 10.5366 32.8363 10.5366 33.7415C10.5366 34.6467 10.8899 35.5148 11.5187 36.1549L22.9716 47.8214C23.6004 48.4614 24.4532 48.821 25.3425 48.821H28.1202C29.0095 48.821 29.8623 48.9327 30.4911 48.2926L48.139 30.3285C48.4814 29.736 48.4814 29.079 48.4814 28.3292V17.3626C48.4813 16.0824 48.4529 15.326 47.5637 14.4208Z" fill="#E0AD51" fill-opacity="0.2"/>
<path d="M45.5922 15.9505C44.8051 15.1634 43.7376 14.7212 42.6245 14.7212H30.6296C29.9775 14.7212 29.3522 14.9802 28.8911 15.4413L13.2702 31.0623C12.7136 31.6189 12.4009 32.3737 12.4009 33.1609C12.4009 33.948 12.7136 34.7029 13.2702 35.2595L23.8248 45.814C24.3813 46.3705 25.1362 46.6832 25.9233 46.6832H28.3819C29.1691 46.6832 29.924 46.3705 30.4805 45.814L46.1015 30.193C46.5625 29.7319 46.8216 29.1065 46.8216 28.4545V18.9184C46.8215 17.8051 46.3793 16.7376 45.5922 15.9505Z" fill="#FF8D30"/>
<path d="M28.8911 15.4411L13.2702 31.0621C12.7136 31.6187 12.4009 32.3735 12.4009 33.1607C12.4009 33.9478 12.7136 34.7027 13.2702 35.2593L23.8248 45.8138C24.3813 46.3703 25.1362 46.683 25.9233 46.683C26.7105 46.683 27.4653 46.3703 28.0219 45.8138L43.6429 30.1928C44.1039 29.7318 44.363 29.1064 44.363 28.4543V18.9182C44.363 17.805 43.9208 16.7374 43.1337 15.9504C42.3466 15.1632 41.2791 14.7211 40.1659 14.7211H30.6296C29.9775 14.721 29.3522 14.9801 28.8911 15.4411Z" fill="#FFB648"/>
<circle cx="29.0783" cy="30.3429" r="16.8571" fill="#FFB648"/>
<g filter="url(#filter0_d)">
<circle cx="28.4464" cy="30.9751" r="8.63929" fill="#E0AD51" fill-opacity="0.2"/>
<circle cx="28.4463" cy="30.975" r="7.375" fill="#AA234C"/>
<path d="M31.4768 27.9657L26.7143 32.7282L24.9759 30.9717C24.8854 30.8993 24.7405 30.8993 24.6681 30.9717L24.1429 31.4968C24.0705 31.5693 24.0705 31.7141 24.1429 31.8047L26.5695 34.2131C26.66 34.3036 26.7868 34.3036 26.8773 34.2131L32.3098 28.7806C32.3822 28.7082 32.3822 28.5633 32.3098 28.4728L31.7846 27.9657C31.7122 27.8752 31.5673 27.8752 31.4768 27.9657Z" fill="white"/>
</g>
<defs>
<filter id="filter0_d" x="15.8071" y="22.3358" width="25.2786" height="25.2786" filterUnits="userSpaceOnUse" color-interpolation-filters="sRGB">
<feFlood flood-opacity="0" result="BackgroundImageFix"/>
<feColorMatrix in="SourceAlpha" type="matrix" values="0 0 0 0 0 0 0 0 0 0 0 0 0 0 0 0 0 0 127 0"/>
<feOffset dy="4"/>
<feGaussianBlur stdDeviation="2"/>
<feColorMatrix type="matrix" values="0 0 0 0 0 0 0 0 0 0 0 0 0 0 0 0 0 0 0.05 0"/>
<feBlend mode="normal" in2="BackgroundImageFix" result="effect1_dropShadow"/>
<feBlend mode="normal" in="SourceGraphic" in2="effect1_dropShadow" result="shape"/>
</filter>
</defs>
</svg>
