<svg width="114" height="112" viewBox="0 0 114 112" fill="none" xmlns="http://www.w3.org/2000/svg">
    <path style="transform: translate(7px, 7px);"
        d="M40.5251 0.488586C18.4973 0.488586 0.640228 18.0323 0.640228 39.6737C0.640228 61.3151 18.4973 78.8589 40.5251 78.8589C62.553 78.8589 80.41 61.3151 80.41 39.6737C80.386 18.0421 62.543 0.512144 40.5251 0.488586ZM40.5251 4.2205C52.257 4.2296 63.2507 9.84707 69.9943 19.2788L65.2461 23.9437C64.0907 23.2568 62.7678 22.8892 61.4172 22.8801C57.2214 22.8801 53.8201 26.2218 53.8201 30.3439C53.8267 31.6723 54.1987 32.974 54.8969 34.1113L42.4605 46.3296C40.1056 44.9189 37.146 44.9189 34.7912 46.3296L26.1533 37.8432C26.8515 36.7059 27.2235 35.4042 27.2301 34.0759C27.2354 29.9619 23.8452 26.6227 19.6577 26.6176C16.1946 26.6134 13.1688 28.9148 12.3056 32.2099H5.25928C8.85533 15.8951 23.5341 4.245 40.5251 4.2205ZM65.2157 30.3439C65.2157 32.4051 63.5152 34.0759 61.4172 34.0759C59.3192 34.0759 57.6186 32.4051 57.6186 30.3439C57.6186 28.2827 59.3192 26.612 61.4172 26.612C63.5152 26.612 65.2157 28.2827 65.2157 30.3439ZM42.4244 52.7354C42.4244 54.7966 40.7238 56.4674 38.6258 56.4674C36.5278 56.4674 34.8273 54.7966 34.8273 52.7354C34.8273 50.6743 36.5278 49.0035 38.6258 49.0035C40.7238 49.0035 42.4244 50.6743 42.4244 52.7354ZM23.4316 34.0759C23.4316 36.137 21.731 37.8078 19.633 37.8078C17.535 37.8078 15.8345 36.137 15.8345 34.0759C15.8345 32.0147 17.535 30.3439 19.633 30.3439C21.731 30.3439 23.4316 32.0147 23.4316 34.0759ZM58.0588 70.6734C52.6952 73.5992 46.6603 75.1321 40.5251 75.1267C20.6088 75.14 4.45232 59.2889 4.43879 39.722C4.43784 38.4592 4.50574 37.1971 4.64201 35.9416H12.3056C13.1691 39.2268 16.1794 41.5266 19.633 41.5395C20.9851 41.5329 22.3101 41.1674 23.4677 40.4815L32.1056 48.9678C31.4074 50.1051 31.0354 51.4069 31.0287 52.7352C31.0287 56.8573 34.4301 60.199 38.6258 60.199C42.8216 60.199 46.2229 56.8573 46.2229 52.7352C46.2163 51.4069 45.8443 50.1051 45.146 48.9678L57.5825 36.7495C58.7401 37.4355 60.0651 37.801 61.4172 37.8075C65.6129 37.8075 69.0143 34.4658 69.0143 30.3437C69.0077 29.0154 68.6356 27.7136 67.9374 26.5763L72.0778 22.5104C81.744 39.6138 75.4673 61.177 58.0588 70.6734Z"
        fill="#FFB648" />
    <path
        d="M95.0071 18.6845C98.4607 18.6716 101.471 16.3721 102.334 13.0866H114V9.35466H102.334C101.471 6.06918 98.4607 3.76962 95.0071 3.75679C90.8113 3.75679 87.41 7.09849 87.41 11.2206C87.4166 12.549 87.7886 13.8507 88.4868 14.988L85.1498 18.2665C69.1828 -2.17067 39.3755 -6.02154 18.5734 9.66535C-2.2287 25.3522 -6.14834 54.6368 9.81867 75.074C24.8904 94.365 52.518 99.0446 73.2945 85.8254L79.0265 91.4569L81.7121 94.0953L97.0013 109.116C100.89 112.937 107.194 112.937 111.083 109.116C114.971 105.296 114.971 99.1024 111.083 95.2821L95.7934 80.2611L93.1078 77.6227L87.3758 71.9912C97.5509 56.5933 97.5509 36.7546 87.3758 21.3565L91.1743 17.6246C92.3312 18.3108 93.6557 18.677 95.0071 18.6845ZM95.0071 7.4887C97.1051 7.4887 98.8056 9.15944 98.8056 11.2206C98.8056 13.2818 97.1051 14.9525 95.0071 14.9525C92.9091 14.9525 91.2085 13.2818 91.2085 11.2206C91.2085 9.15944 92.9093 7.4887 95.0071 7.4887ZM108.397 97.9206C110.829 100.257 110.874 104.088 108.496 106.478C106.118 108.868 102.218 108.911 99.7859 106.575C99.7524 106.543 99.7197 106.511 99.6869 106.478L84.3977 91.4569L93.1078 82.8996L108.397 97.9206ZM90.4222 80.2611L81.7121 88.8184L76.4549 83.6534C76.7227 83.4519 76.9734 83.2299 77.2374 83.0227C77.5014 82.8156 77.8072 82.5674 78.0902 82.3342C78.5061 81.9909 78.9164 81.6438 79.319 81.2874C79.526 81.1008 79.7236 80.9142 79.9268 80.7276C80.7055 80.0111 81.4595 79.2703 82.1888 78.5053C82.3788 78.3056 82.5687 78.1115 82.7586 77.9081C83.1214 77.5126 83.4746 77.1095 83.8241 76.7009C84.0622 76.4247 84.2958 76.1455 84.5249 75.8631C84.7339 75.6056 84.9599 75.3592 85.165 75.0961L90.4222 80.2611ZM83.0568 71.5937C82.4585 72.4148 81.8413 73.219 81.1898 73.9934C80.9999 74.2191 80.7967 74.4375 80.601 74.6595C80.0199 75.3238 79.4197 75.9682 78.8005 76.5926C78.5308 76.8662 78.2566 77.1356 77.9781 77.4006C77.345 78.0089 76.6892 78.5985 76.0105 79.1695C75.7845 79.3561 75.5622 79.5595 75.3324 79.748C74.5442 80.388 73.7256 80.9944 72.89 81.5822C53.2286 95.3822 25.903 90.9102 11.8566 71.5937C-2.18977 52.2773 2.3621 25.4311 22.0234 11.6311C41.6848 -2.1688 69.0104 2.30297 83.0568 21.6196C93.9257 36.5664 93.9257 56.6469 83.0568 71.5937Z"
        fill="#FFB648" />
</svg>