<svg width="128" height="128" viewBox="0 0 128 128" fill="none" xmlns="http://www.w3.org/2000/svg">
<g clip-path="url(#clip0)">
<path d="M119.467 25.6001C114.761 25.6001 110.934 29.4273 110.934 34.1333C110.934 38.8393 114.761 42.6666 119.467 42.6666C124.173 42.6666 128 38.8396 128 34.1333C128 29.4273 124.173 25.6001 119.467 25.6001ZM119.467 38.4001C117.114 38.4001 115.2 36.4866 115.2 34.1333C115.2 31.7803 117.114 29.8666 119.467 29.8666C121.82 29.8666 123.734 31.7801 123.734 34.1333C123.733 36.4866 121.82 38.4001 119.467 38.4001Z" fill="#FFB648"/>
<path d="M8.53325 96C3.82725 96 0 99.8272 0 104.533C0 109.239 3.82725 113.066 8.53325 113.066C13.2395 113.066 17.0665 109.239 17.0665 104.533C17.0665 99.8272 13.2395 96 8.53325 96ZM8.53325 108.8C6.18025 108.8 4.2665 106.886 4.2665 104.533C4.2665 102.18 6.18 100.267 8.53325 100.267C10.8862 100.267 12.8 102.18 12.8 104.533C12.8 106.886 10.8865 108.8 8.53325 108.8Z" fill="#FFB648"/>
<path d="M115.33 28.2964L96.9261 19.4112C95.8636 18.8969 94.5901 19.3449 94.0781 20.4054C93.5661 21.4657 94.0119 22.7414 95.0724 23.2534L113.477 32.1387C113.775 32.2837 114.091 32.3519 114.402 32.3519C115.196 32.3519 115.958 31.9082 116.324 31.1444C116.836 30.0842 116.391 28.8084 115.33 28.2964Z" fill="#FFB648"/>
<path d="M95.9999 110.933C91.2936 110.933 87.4666 114.761 87.4666 119.467C87.4666 124.173 91.2936 128 95.9999 128C100.706 128 104.533 124.173 104.533 119.467C104.533 114.761 100.706 110.933 95.9999 110.933ZM95.9999 123.733C93.6469 123.733 91.7331 121.82 91.7331 119.467C91.7331 117.113 93.6469 115.2 95.9999 115.2C98.3529 115.2 100.267 117.114 100.267 119.467C100.267 121.82 98.3529 123.733 95.9999 123.733Z" fill="#FFB648"/>
<path d="M91.8634 113.63L73.4592 104.745C72.3967 104.231 71.1232 104.677 70.6112 105.739C70.0992 106.799 70.5449 108.075 71.6054 108.587L90.0097 117.472C90.3084 117.617 90.6242 117.686 90.9354 117.686C91.7289 117.686 92.4907 117.242 92.8577 116.478C93.3694 115.418 92.9237 114.142 91.8634 113.63Z" fill="#FFB648"/>
<path d="M63.9999 57.6001C59.2936 57.6001 55.4666 61.4273 55.4666 66.1333C55.4666 70.8396 59.2939 74.6666 63.9999 74.6666C68.7061 74.6666 72.5331 70.8393 72.5331 66.1333C72.5331 61.4273 68.7061 57.6001 63.9999 57.6001ZM63.9999 70.4001C61.6469 70.4001 59.7331 68.4866 59.7331 66.1333C59.7331 63.7803 61.6466 61.8666 63.9999 61.8666C66.3529 61.8666 68.2666 63.7801 68.2666 66.1333C68.2666 68.4866 66.3529 70.4001 63.9999 70.4001Z" fill="#FFB648"/>
<path d="M60.2494 60.5355L46.1119 49.5167C45.1817 48.7977 43.8422 48.9577 43.1167 49.888C42.3934 50.8182 42.5577 52.1577 43.4879 52.8832L57.6254 63.902C58.0159 64.205 58.4767 64.3522 58.9354 64.3522C59.5712 64.3522 60.1984 64.0707 60.6207 63.531C61.3439 62.6005 61.1797 61.2607 60.2494 60.5355Z" fill="#FFB648"/>
<path d="M102.4 55.4668C89.4613 55.4668 78.9333 65.9948 78.9333 78.9335C78.9333 91.8723 89.4613 102.4 102.4 102.4C115.339 102.4 125.867 91.8723 125.867 78.9335C125.867 65.9948 115.339 55.4668 102.4 55.4668ZM102.4 98.1333C91.8123 98.1333 83.2001 89.521 83.2001 78.9333C83.2001 68.3455 91.8123 59.7333 102.4 59.7333C112.988 59.7333 121.6 68.3455 121.6 78.9333C121.6 89.521 112.988 98.1333 102.4 98.1333Z" fill="#FFB648"/>
<path d="M102.4 64C97.6939 64 93.8669 67.8272 93.8669 72.5332C93.8669 77.2395 97.6942 81.0665 102.4 81.0665C107.106 81.0665 110.933 77.2392 110.933 72.5332C110.933 67.8272 107.106 64 102.4 64ZM102.4 76.8C100.047 76.8 98.1334 74.8865 98.1334 72.5332C98.1334 70.1802 100.047 68.2665 102.4 68.2665C104.753 68.2665 106.667 70.18 106.667 72.5332C106.667 74.8865 104.753 76.8 102.4 76.8Z" fill="#FFB648"/>
<path d="M108.589 85.3333H96.2113C92.5656 85.3333 89.6001 88.2198 89.6001 91.7653V97.3887C89.6001 98.1502 90.0053 98.8543 90.6646 99.2363C94.2401 101.306 98.2976 102.4 102.4 102.4C106.503 102.4 110.56 101.306 114.136 99.2363C114.795 98.8565 115.2 98.1502 115.2 97.391V91.7675C115.2 88.2198 112.235 85.3333 108.589 85.3333ZM110.933 96.1172C105.624 98.7625 99.1766 98.7625 93.8666 96.1172V91.7675C93.8666 90.5728 94.9183 89.6 96.2111 89.6H108.589C109.881 89.6 110.933 90.5728 110.933 91.7675V96.1172H110.933Z" fill="#FFB648"/>
<path d="M51.1999 81.0667C38.2612 81.0667 27.7332 91.5947 27.7332 104.533C27.7332 117.472 38.2612 128 51.1999 128C64.1387 128 74.6667 117.472 74.6667 104.533C74.6667 91.5944 64.1387 81.0667 51.1999 81.0667ZM51.1999 123.733C40.6122 123.733 31.9999 115.121 31.9999 104.533C31.9999 93.9454 40.6122 85.3332 51.1999 85.3332C61.7877 85.3332 70.3999 93.9454 70.3999 104.533C70.3999 115.121 61.7877 123.733 51.1999 123.733Z" fill="#FFB648"/>
<path d="M51.2 89.6001C46.4938 89.6001 42.6668 93.4273 42.6668 98.1333C42.6668 102.84 46.494 106.667 51.2 106.667C55.906 106.667 59.7333 102.839 59.7333 98.1333C59.7333 93.4273 55.9063 89.6001 51.2 89.6001ZM51.2 102.4C48.847 102.4 46.9333 100.487 46.9333 98.1333C46.9333 95.7803 48.8468 93.8666 51.2 93.8666C53.553 93.8666 55.4668 95.7801 55.4668 98.1333C55.4668 100.487 53.553 102.4 51.2 102.4Z" fill="#FFB648"/>
<path d="M57.3887 110.933H45.0112C41.3654 110.933 38.3999 113.82 38.3999 117.365V122.989C38.3999 123.75 38.8052 124.454 39.4644 124.836C43.0399 126.906 47.0974 128 51.1999 128C55.3024 128 59.3599 126.906 62.9354 124.836C63.5947 124.457 63.9999 123.751 63.9999 122.991V117.368C63.9999 113.82 61.0347 110.933 57.3887 110.933ZM59.7332 121.717C54.4232 124.363 47.9764 124.363 42.6664 121.717V117.368C42.6664 116.173 43.7182 115.2 45.0109 115.2H57.3884C58.6812 115.2 59.7329 116.173 59.7329 117.368V121.717H59.7332Z" fill="#FFB648"/>
<path d="M23.4667 27.7332C10.528 27.7332 0 38.2612 0 51.1999C0 64.1387 10.528 74.6667 23.4667 74.6667C36.4055 74.6667 46.9335 64.1387 46.9335 51.1999C46.9332 38.2612 36.4053 27.7332 23.4667 27.7332ZM23.4667 70.3999C12.879 70.3999 4.26675 61.7877 4.26675 51.1999C4.26675 40.6122 12.879 31.9999 23.4667 31.9999C34.0545 31.9999 42.6668 40.6122 42.6668 51.1999C42.6668 61.7877 34.0545 70.3999 23.4667 70.3999Z" fill="#FFB648"/>
<path d="M23.4668 36.2668C18.7606 36.2668 14.9336 40.0941 14.9336 44.8001C14.9336 49.5061 18.7608 53.3333 23.4668 53.3333C28.1731 53.3333 32.0001 49.5061 32.0001 44.8001C32.0001 40.0941 28.1728 36.2668 23.4668 36.2668ZM23.4668 49.0668C21.1138 49.0668 19.2001 47.1533 19.2001 44.8001C19.2001 42.4468 21.1136 40.5333 23.4668 40.5333C25.8198 40.5333 27.7336 42.4468 27.7336 44.8001C27.7336 47.1533 25.8198 49.0668 23.4668 49.0668Z" fill="#FFB648"/>
<path d="M29.6555 57.6001H17.278C13.6323 57.6001 10.6668 60.4866 10.6668 64.0321V69.6556C10.6668 70.4171 11.072 71.1211 11.7313 71.5031C15.3068 73.5723 19.3643 74.6668 23.4668 74.6668C27.5693 74.6668 31.6268 73.5723 35.2023 71.5031C35.8615 71.1233 36.2668 70.4171 36.2668 69.6578V64.0343C36.2668 60.4866 33.3013 57.6001 29.6555 57.6001ZM32 68.3841C26.6903 71.0293 20.2433 71.0293 14.9333 68.3841V64.0343C14.9333 62.8396 15.985 61.8668 17.2778 61.8668H29.6553C30.948 61.8668 31.9998 62.8396 31.9998 64.0343V68.3841H32Z" fill="#FFB648"/>
<path d="M74.6669 0C61.7281 0 51.2001 10.528 51.2001 23.4667C51.2001 36.4055 61.7281 46.9335 74.6669 46.9335C87.6056 46.9335 98.1336 36.4055 98.1336 23.4667C98.1334 10.528 87.6054 0 74.6669 0ZM74.6669 42.6668C64.0791 42.6668 55.4669 34.0545 55.4669 23.4667C55.4669 12.879 64.0791 4.26675 74.6669 4.26675C85.2546 4.26675 93.8669 12.879 93.8669 23.4667C93.8669 34.0545 85.2546 42.6668 74.6669 42.6668Z" fill="#FFB648"/>
<path d="M74.6666 8.5332C69.9604 8.5332 66.1334 12.3605 66.1334 17.0665C66.1334 21.7725 69.9606 25.5997 74.6666 25.5997C79.3726 25.5997 83.1999 21.7727 83.1999 17.0667C83.1999 12.3607 79.3726 8.5332 74.6666 8.5332ZM74.6666 21.3332C72.3136 21.3332 70.3999 19.4197 70.3999 17.0665C70.3999 14.7135 72.3134 12.7997 74.6666 12.7997C77.0199 12.7997 78.9334 14.7132 78.9334 17.0665C78.9331 19.4197 77.0196 21.3332 74.6666 21.3332Z" fill="#FFB648"/>
<path d="M80.8556 29.8667H68.4781C64.8324 29.8667 61.8669 32.7532 61.8669 36.2987V41.9222C61.8669 42.6837 62.2722 43.3877 62.9314 43.7697C66.5069 45.839 70.5644 46.9335 74.6669 46.9335C78.7694 46.9335 82.8269 45.839 86.4024 43.7697C87.0616 43.39 87.4669 42.6837 87.4669 41.9245V36.301C87.4669 32.753 84.5014 29.8667 80.8556 29.8667ZM83.2001 40.6507C77.8904 43.296 71.4434 43.296 66.1334 40.6507V36.301C66.1334 35.1062 67.1851 34.1335 68.4779 34.1335H80.8554C82.1481 34.1335 83.1999 35.1062 83.1999 36.301V40.6507H83.2001Z" fill="#FFB648"/>
<path d="M54.9568 22.0777C54.191 21.1859 52.8448 21.0792 51.9488 21.8452L37.1648 34.4959C36.2688 35.2617 36.1643 36.6079 36.93 37.5039C37.3525 37.9967 37.9498 38.2507 38.5513 38.2507C39.042 38.2507 39.5348 38.0822 39.938 37.7364L54.722 25.0857C55.6183 24.3199 55.7228 22.9737 54.9568 22.0777Z" fill="#FFB648"/>
<path d="M101.973 56.3222L89.1733 39.2555C88.467 38.3105 87.1295 38.1248 86.1865 38.8288C85.2435 39.535 85.0538 40.8725 85.7598 41.8133L98.5598 58.88C98.98 59.439 99.62 59.7332 100.269 59.7332C100.712 59.7332 101.163 59.5945 101.547 59.3065C102.49 58.6005 102.68 57.263 101.973 56.3222Z" fill="#FFB648"/>
<path d="M84.465 85.9883C83.7588 85.0453 82.4213 84.8555 81.4783 85.5615L69.5615 94.498C68.6185 95.2043 68.4288 96.5418 69.1348 97.4825C69.555 98.0415 70.195 98.3358 70.8435 98.3358C71.2893 98.3358 71.7373 98.195 72.1215 97.909L84.0383 88.9725C84.9813 88.2668 85.1713 86.929 84.465 85.9883Z" fill="#FFB648"/>
<path d="M29.8668 102.4H14.9333C13.7558 102.4 12.8 103.353 12.8 104.533C12.8 105.713 13.7558 106.666 14.9333 106.666H29.8665C31.044 106.666 31.9998 105.713 31.9998 104.533C31.9998 103.353 31.0443 102.4 29.8668 102.4Z" fill="#FFB648"/>
<path d="M23.4668 0C18.7606 0 14.9333 3.82725 14.9333 8.53325C14.9333 13.2395 18.7606 17.0665 23.4666 17.0665C28.1728 17.0665 31.9998 13.2393 31.9998 8.53325C32.0001 3.82725 28.1728 0 23.4668 0ZM23.4668 12.8C21.1138 12.8 19.2001 10.8865 19.2001 8.53325C19.2001 6.18025 21.1136 4.2665 23.4668 4.2665C25.8198 4.2665 27.7336 6.18 27.7336 8.53325C27.7333 10.8865 25.8198 12.8 23.4668 12.8Z" fill="#FFB648"/>
<path d="M23.4668 12.8C22.2893 12.8 21.3335 13.7535 21.3335 14.9333V29.8665C21.3335 31.0463 22.2893 31.9998 23.4668 31.9998C24.6443 31.9998 25.6 31.0463 25.6 29.8665V14.9333C25.6 13.7535 24.6443 12.8 23.4668 12.8Z" fill="#FFB648"/>
</g>
<defs>
<clipPath id="clip0">
<rect width="128" height="128" fill="white"/>
</clipPath>
</defs>
</svg>
