<svg width="121" height="112" viewBox="0 0 121 112" fill="none" xmlns="http://www.w3.org/2000/svg">
<path d="M111.933 51.7812L120.16 43.6121C120.835 42.9418 121.037 41.9335 120.671 41.0579C120.306 40.182 119.445 39.6111 118.49 39.6111H101.437C99.2074 30.5502 94.5289 22.2938 87.8408 15.6526C78.1224 6.00219 65.2006 0.6875 51.4561 0.6875C37.7117 0.6875 24.7898 6.00219 15.0712 15.6526C5.35238 25.303 0 38.1336 0 51.7812C0 65.4289 5.35238 78.2598 15.0712 87.9099C17.9613 90.7796 21.1362 93.2626 24.5302 95.3396L17.4191 107.814C17.0055 108.54 17.0112 109.429 17.4342 110.149C17.8569 110.87 18.6333 111.312 19.4731 111.312H31.629C32.4794 111.312 33.2643 110.858 33.6832 110.123L38.7113 101.303C42.8266 102.339 47.0998 102.875 51.4561 102.875C55.8124 102.875 60.0856 102.339 64.201 101.303L69.229 110.123C69.648 110.858 70.4328 111.312 71.2832 111.312H83.4392C84.279 111.312 85.0553 110.87 85.4783 110.149C85.9013 109.429 85.9069 108.54 85.4934 107.814L78.3823 95.3398C81.7763 93.2626 84.9512 90.7798 87.8413 87.9102C94.5268 81.2717 99.2076 73.0119 101.437 63.9516H118.491C119.445 63.9516 120.306 63.3805 120.671 62.5048C121.037 61.6292 120.835 60.6209 120.16 59.9506L111.933 51.7812ZM107.617 49.4375H91.1439L96.3192 44.2986H112.792L107.617 49.4375ZM30.2527 106.625H23.5213L28.6589 97.6126C30.4221 98.4793 32.2323 99.2459 34.0842 99.9036L30.2527 106.625ZM79.3909 106.625H72.6596L68.828 99.9036C70.6799 99.2459 72.4901 98.4793 74.2533 97.6126L79.3909 106.625ZM84.503 84.5954C81.3849 87.6915 77.9024 90.2935 74.1537 92.3677C74.1074 92.39 74.0607 92.4111 74.0151 92.4366C73.9866 92.4528 73.9606 92.4713 73.933 92.4884C71.0574 94.0592 68.0271 95.3204 64.8829 96.2518C64.7592 96.2762 64.6369 96.3123 64.5163 96.3573C60.3257 97.5615 55.9396 98.1875 51.4561 98.1875C46.9726 98.1875 42.5865 97.5615 38.3959 96.3575C38.2751 96.3125 38.1528 96.2764 38.0289 96.252C34.8849 95.3206 31.8546 94.0595 28.9792 92.4887C28.9516 92.4716 28.9257 92.453 28.8971 92.4369C28.8515 92.4113 28.805 92.3902 28.7588 92.368C25.01 90.2938 21.5275 87.6917 18.4095 84.5954C9.58217 75.8305 4.72074 64.1769 4.72074 51.7812C4.72074 39.3856 9.58217 27.732 18.4093 18.9671C27.2363 10.2022 38.9726 5.375 51.4561 5.375C63.9397 5.375 75.6759 10.2022 84.503 18.9671C90.3031 24.7264 94.4399 31.8212 96.564 39.6111H95.3418C94.7158 39.6111 94.1154 39.8581 93.6728 40.2976L87.4081 46.5181C86.776 42.257 85.3886 38.1137 83.2935 34.3456C82.6635 33.2124 81.2275 32.8013 80.0863 33.4266C78.945 34.0522 78.5308 35.4781 79.1608 36.6113C81.4015 40.6412 82.6532 45.0226 82.9735 49.4377H72.5661C72.0407 44.6902 69.9279 40.2922 66.4775 36.8661C62.4651 32.8817 57.1305 30.6875 51.4561 30.6875C45.7818 30.6875 40.4471 32.8817 36.4349 36.8656C32.4225 40.85 30.2128 46.1469 30.2128 51.7812C30.2128 57.4156 32.4225 62.7127 36.4347 66.6966C40.4471 70.6808 45.7818 72.875 51.4561 72.875C57.1305 72.875 62.4651 70.6808 66.4773 66.6969C69.9277 63.2708 72.0405 58.8727 72.5659 54.125H82.9631C82.4001 61.4516 79.2866 68.5616 73.8211 73.9888C67.8473 79.9208 59.9044 83.1875 51.4561 83.1875C43.0079 83.1875 35.065 79.9208 29.0911 73.9888C23.117 68.057 19.8271 60.1702 19.8271 51.7812C19.8271 43.3923 23.117 35.5055 29.0911 29.5737C39.0004 19.7342 54.4798 17.5541 66.7339 24.272C67.8749 24.8973 69.3109 24.4862 69.9411 23.353C70.5711 22.2198 70.1569 20.7941 69.0156 20.1683C62.2544 16.4616 54.293 14.9844 46.5989 16.0095C38.648 17.0684 31.4395 20.6127 25.7531 26.2592C18.8875 33.0765 15.1064 42.1402 15.1064 51.7812C15.1064 61.4223 18.8875 70.4863 25.7528 77.3033C32.6185 84.1206 41.7467 87.875 51.4561 87.875C61.1655 87.875 70.2938 84.1205 77.1592 77.3035C82.7379 71.7643 86.277 64.7703 87.4164 57.0531L93.6726 63.2652C94.1151 63.7046 94.7156 63.9516 95.3416 63.9516H96.5633C94.4392 71.7411 90.3008 78.8384 84.503 84.5954ZM59.1651 47.3619C58.5134 46.2406 57.0698 45.8567 55.9408 46.5041L50.2759 49.7516C49.5456 50.1702 49.0957 50.9438 49.0957 51.7812C49.0957 52.6187 49.5456 53.3923 50.2759 53.8109L55.9408 57.0584C56.3126 57.2715 56.7183 57.3727 57.1189 57.3727C57.9346 57.3727 58.728 56.9525 59.1651 56.2006C59.5482 55.542 59.5701 54.7763 59.2961 54.125H67.8104C67.3103 57.6179 65.6965 60.8431 63.1393 63.3821C60.0186 66.481 55.8695 68.1875 51.4561 68.1875C47.0427 68.1875 42.8936 66.481 39.7727 63.3821C36.6521 60.2834 34.9335 56.1636 34.9335 51.7812C34.9335 47.3989 36.6521 43.2791 39.773 40.1802C42.8936 37.0815 47.0427 35.375 51.4561 35.375C55.8695 35.375 60.0186 37.0815 63.1395 40.1804C65.6965 42.7194 67.3105 45.9446 67.8107 49.4375H59.2963C59.5701 48.7859 59.5482 48.0205 59.1651 47.3619ZM96.3192 59.2639L91.1439 54.125H107.617L112.792 59.2639H96.3192Z" fill="#FFB648"/>
</svg>
