<svg width="99" height="29" viewBox="0 0 99 29" fill="none" xmlns="http://www.w3.org/2000/svg">
<path d="M10.6841 4.63599V12.5333H3.43947V4.63599H0V23.4877H3.43947V15.8468H10.6841V23.4877H14.1236V4.63599H10.6841Z" fill="black"/>
<path d="M25.1311 17.3941C25.1311 18.1496 24.8314 18.8741 24.2977 19.4084C23.7641 19.9426 23.0404 20.2427 22.2857 20.2427C21.531 20.2427 20.8073 19.9426 20.2737 19.4084C19.74 18.8741 19.4403 18.1496 19.4403 17.3941V9.31958H16.1777V17.3941C16.1777 19.0143 16.8206 20.5681 17.965 21.7138C19.1094 22.8594 20.6614 23.5031 22.2798 23.5031C23.8982 23.5031 25.4503 22.8594 26.5946 21.7138C27.739 20.5681 28.3819 19.0143 28.3819 17.3941V9.31958H25.1311V17.3941Z" fill="black"/>
<path d="M49.3035 10.1511C49.3035 8.49608 50.3972 7.97139 51.5953 7.97139C52.5609 7.97139 53.8366 8.70696 54.6708 9.59944L56.8076 7.07891C55.7409 5.63475 53.5771 4.63599 51.806 4.63599C48.2671 4.63599 45.7073 6.71112 45.7073 10.1511C45.7073 16.5334 53.4996 14.5089 53.4996 18.0805C53.4996 19.1822 52.4312 20.1556 51.2077 20.1556C49.2782 20.1556 48.653 19.2109 47.7666 18.2121L45.3955 20.6803C46.9122 22.5446 48.7827 23.491 51.024 23.491C54.386 23.491 57.0907 21.3906 57.0907 18.1075C57.0907 11.0217 49.2984 13.2233 49.2984 10.1511" fill="black"/>
<path d="M97.5101 20.4762C95.5823 20.4762 95.0346 19.6411 95.0346 18.3623V12.702H98.0309V9.83398H95.0346V6.0498L91.7266 7.53614V19.0658C91.7266 22.0149 93.7589 23.5012 96.5462 23.5012C96.9834 23.5092 97.4202 23.4741 97.8506 23.3966L98.6578 20.4222C98.2938 20.4475 97.8758 20.4728 97.5101 20.4728" fill="black"/>
<path d="M37.5491 9.41386C35.933 9.41386 34.8057 9.88288 33.7153 10.9542V4.74902H30.4478V16.25C30.4478 20.5555 33.5569 23.5045 37.0503 23.5045C40.9263 23.5045 44.3354 20.5032 44.3354 16.4609C44.3354 12.4692 41.1976 9.41555 37.5491 9.41555V9.41386ZM37.5289 20.213C36.7957 20.213 36.0789 19.9953 35.4692 19.5875C34.8595 19.1796 34.3843 18.6 34.1037 17.9218C33.8231 17.2435 33.7497 16.4973 33.8927 15.7773C34.0358 15.0573 34.3889 14.3959 34.9074 13.8769C35.4259 13.3578 36.0865 13.0043 36.8056 12.8611C37.5248 12.7179 38.2702 12.7914 38.9477 13.0723C39.6251 13.3532 40.2041 13.8289 40.6115 14.4393C41.0189 15.0497 41.2363 15.7673 41.2363 16.5014C41.2363 17.4858 40.8457 18.4298 40.1505 19.1259C39.4552 19.822 38.5122 20.213 37.5289 20.213Z" fill="black"/>
<path d="M73.0292 16.2885C73.0292 12.2395 69.6268 9.24487 65.7442 9.24487C62.2508 9.24487 59.1416 12.1939 59.1416 16.4994V28.0071H62.4092V21.7935C63.4978 22.8632 64.6269 23.3339 66.2413 23.3339C69.8897 23.3339 73.0276 20.2819 73.0276 16.2885H73.0292ZM69.9352 16.248C69.9352 16.9821 69.7178 17.6997 69.3104 18.3101C68.903 18.9205 68.324 19.3962 67.6466 19.6771C66.9691 19.9581 66.2237 20.0316 65.5045 19.8883C64.7854 19.7451 64.1248 19.3916 63.6063 18.8726C63.0878 18.3535 62.7347 17.6921 62.5916 16.9721C62.4486 16.2522 62.522 15.5059 62.8026 14.8277C63.0832 14.1494 63.5584 13.5698 64.1681 13.1619C64.7778 12.7541 65.4946 12.5364 66.2278 12.5364C67.2111 12.5364 68.1541 12.9275 68.8494 13.6235C69.5446 14.3196 69.9352 15.2637 69.9352 16.248Z" fill="black"/>
<path d="M83.5854 9.08673V5.80026C84.0192 5.59732 84.3865 5.2752 84.6446 4.87138C84.9027 4.46757 85.0408 3.99868 85.0431 3.5193V3.44338C85.0431 2.7722 84.7767 2.12852 84.3027 1.65393C83.8286 1.17934 83.1857 0.912722 82.5153 0.912722H82.4395C81.769 0.912722 81.1261 1.17934 80.652 1.65393C80.178 2.12852 79.9117 2.7722 79.9117 3.44338V3.5193C79.9139 3.99868 80.0521 4.46757 80.3101 4.87138C80.5682 5.2752 80.9355 5.59732 81.3694 5.80026V9.08673C80.1225 9.27771 78.9482 9.79511 77.9653 10.5866L68.963 3.56653C69.0267 3.33504 69.0607 3.09636 69.0641 2.85626C69.0651 2.29228 68.899 1.74067 68.5868 1.2712C68.2746 0.801726 67.8304 0.435491 67.3103 0.218815C66.7902 0.00213932 66.2176 -0.0552432 65.6649 0.0539257C65.1122 0.163095 64.6042 0.43391 64.2053 0.832118C63.8064 1.23033 63.5344 1.73804 63.4237 2.29103C63.313 2.84403 63.3686 3.41746 63.5835 3.9388C63.7984 4.46015 64.1629 4.90597 64.6309 5.2199C65.0989 5.53382 65.6494 5.70174 66.2128 5.70241C66.7054 5.7002 67.1888 5.56874 67.6148 5.32112L76.4806 12.2264C75.684 13.431 75.2684 14.8479 75.2879 16.2924C75.3074 17.7369 75.7612 19.142 76.5902 20.3245L73.8939 23.0239C73.6758 22.9542 73.4486 22.9172 73.2198 22.9142C72.7573 22.9146 72.3053 23.0521 71.9209 23.3096C71.5365 23.567 71.237 23.9328 71.0602 24.3606C70.8833 24.7884 70.8371 25.2591 70.9275 25.7132C71.0178 26.1673 71.2405 26.5844 71.5675 26.9118C71.8945 27.2391 72.3112 27.4621 72.7647 27.5525C73.2183 27.643 73.6885 27.5967 74.1158 27.4197C74.5431 27.2427 74.9085 26.9428 75.1656 26.558C75.4227 26.1731 75.5602 25.7206 75.5605 25.2576C75.5576 25.0285 75.5207 24.801 75.451 24.5828L78.1186 21.9121C78.9885 22.5822 80 23.0442 81.0757 23.2625C82.1515 23.4809 83.2628 23.4499 84.3247 23.1719C85.3866 22.8938 86.3709 22.3762 87.2021 21.6586C88.0333 20.941 88.6894 20.0424 89.1202 19.0317C89.551 18.021 89.7451 16.9251 89.6875 15.8277C89.6299 14.7304 89.3222 13.6608 88.7879 12.7009C88.2537 11.741 87.5071 10.9162 86.6053 10.2898C85.7036 9.66331 84.6705 9.2518 83.5854 9.08673ZM82.4799 19.8943C81.7502 19.8936 81.0371 19.6764 80.4306 19.2701C79.8242 18.8638 79.3517 18.2866 79.0728 17.6115C78.794 16.9364 78.7213 16.1937 78.8639 15.4773C79.0065 14.7609 79.3581 14.1028 79.8742 13.5864C80.3903 13.0699 81.0478 12.7182 81.7635 12.5758C82.4792 12.4333 83.221 12.5064 83.8952 12.7859C84.5694 13.0654 85.1457 13.5387 85.5513 14.146C85.9569 14.7533 86.1735 15.4673 86.1738 16.1979C86.1738 17.1778 85.785 18.1176 85.0929 18.8105C84.4008 19.5034 83.4621 19.8926 82.4833 19.8926" fill="#FF7A59"/>
</svg>
