<svg width="103" height="88" viewBox="0 0 103 88" fill="none" xmlns="http://www.w3.org/2000/svg">
<g id="momnpophub logo">
<path id="Fill 1" fill-rule="evenodd" clip-rule="evenodd" d="M100.816 14.1382L97.4904 68.4108C97.1459 74.034 92.4938 78.4378 86.8995 78.4378H17.7626C12.2471 78.4378 7.70483 74.268 7.19678 68.7372L2.20838 14.4655C1.93401 11.48 2.92719 8.49717 4.93302 6.28128C6.93929 4.06582 9.79679 2.79555 12.7742 2.79555H90.2252C93.1407 2.79555 95.9588 4.02224 97.956 6.16144C99.9532 8.30064 100.996 11.2081 100.816 14.1382ZM99.5326 4.66893C97.1277 2.09396 93.7353 0.616699 90.2252 0.616699H12.7742C9.19006 0.616699 5.7492 2.14669 3.33441 4.8136C0.919193 7.48139 -0.276517 11.0726 0.0541103 14.6664L5.04251 68.9381C5.654 75.5962 11.1223 80.6167 17.7626 80.6167H86.8995C93.6349 80.6167 99.2353 75.3142 99.6498 68.5454L102.976 14.2729C103.192 10.7449 101.937 7.24476 99.5326 4.66893Z" fill="#B52447"/>
<path id="Fill 2" fill-rule="evenodd" clip-rule="evenodd" d="M89.7436 6.6167H12.256C10.2198 6.6167 8.26543 7.4741 6.89338 8.96908C5.52175 10.4641 4.84287 12.477 5.03078 14.4912L10.0215 68.0707C10.3692 71.8027 13.4753 74.6167 17.2468 74.6167H86.4158C90.2415 74.6167 93.4233 71.6448 93.6588 67.8508L96.9857 14.271C97.1104 12.2645 96.4159 10.3526 95.0305 8.8882C93.6445 7.42334 91.7668 6.6167 89.7436 6.6167Z" fill="#E8A84D"/>
<path id="Fill 3" fill-rule="evenodd" clip-rule="evenodd" d="M98.3504 14.7632L95.0136 68.5746C94.721 73.2945 90.7694 76.9917 86.0167 76.9917H16.6508C11.9654 76.9917 8.10718 73.4911 7.67602 68.849L2.67064 15.038C2.43748 12.5315 3.28068 10.0277 4.98446 8.16767C6.68867 6.30762 9.11668 5.24127 11.6459 5.24127H89.3539C91.8675 5.24127 94.1995 6.24453 95.9211 8.06699C97.6427 9.88945 98.5054 12.2671 98.3504 14.7632ZM97.1104 6.95442C95.1066 4.8334 92.2791 3.6167 89.3539 3.6167H11.6459C8.6586 3.6167 5.79162 4.87661 3.7787 7.07324C1.76621 9.26987 0.76974 12.2278 1.04502 15.1879L6.04997 68.998C6.55971 74.4818 11.117 78.6167 16.6508 78.6167H86.0172C91.63 78.6167 96.2976 74.2498 96.6432 68.6748L99.9799 14.863C100.161 11.9578 99.1142 9.07501 97.1104 6.95442Z" fill="#E8A84D"/>
<path id="Fill 4" fill-rule="evenodd" clip-rule="evenodd" d="M97.2437 14.0651L93.8981 68.0637C93.6612 71.8873 90.4615 74.8824 86.6144 74.8824H17.057C13.2643 74.8824 10.1408 72.0464 9.7912 68.2852L4.77243 14.2871C4.58347 12.2571 5.26617 10.2284 6.64549 8.72174C8.02525 7.21509 9.99061 6.35098 12.0383 6.35098H89.9608C91.9954 6.35098 93.8837 7.16393 95.2774 8.64023C96.6707 10.1161 97.369 12.0429 97.2437 14.0651ZM89.9608 4.6167H12.0383C9.5021 4.6167 7.06738 5.68675 5.35847 7.55327C3.64999 9.41979 2.80446 11.9323 3.03826 14.4475L8.05747 68.4456C8.48981 73.1039 12.3587 76.6167 17.057 76.6167H86.6144C91.3802 76.6167 95.3427 72.9066 95.6362 68.1703L98.9822 14.1717C99.1376 11.667 98.2725 9.28105 96.5462 7.45225C94.8198 5.62345 92.4813 4.6167 89.9608 4.6167Z" fill="#FFFFFE"/>
<path id="Fill 5" fill-rule="evenodd" clip-rule="evenodd" d="M37.5088 10.6167L32.0478 11.0284L27.889 26.1364L24.707 10.6802L18.9197 11.1537L16 33.6167L21.409 33.3864L22.6093 19.0954L25.2257 33.5152L29.8545 33.1657L33.5808 18.6746L33.8393 33.6055L39 33.1752L37.5088 10.6167Z" fill="black"/>
<path id="Fill 6" fill-rule="evenodd" clip-rule="evenodd" d="M31 13.9125L25 10.6167L28.003 23.6167L31 13.9125Z" fill="#B52447"/>
<path id="Fill 7" fill-rule="evenodd" clip-rule="evenodd" d="M34.0188 33.9249L33.7542 19.2304L29.9385 33.4921L25.1986 33.8361L22.5195 19.6445L21.2904 33.7094L20.5287 33.7404L15.7517 33.936L18.7414 11.8285L24.6675 11.3625L27.9259 26.574L32.1844 11.7052L37.7764 11.3L39.3033 33.5015L34.0188 33.9249ZM38.3997 10.8174L38.3861 10.6167L31.6769 11.1023L28.018 23.8784L25.2034 10.737L25.1912 10.6813L18.1609 11.2341L15 34.6056L15.4634 34.5865L21.894 34.3233L22.7584 24.4379L24.6601 34.5147L30.4548 34.0946L33.1824 23.8967L33.3755 34.6167L40 34.0852L38.3997 10.8174Z" fill="#E8A84D"/>
<path id="Fill 8" fill-rule="evenodd" clip-rule="evenodd" d="M53.0196 16.9703L52.0184 27.9713C51.9944 28.3478 51.9451 29.1315 50.9143 29.1731L49.4703 29.2372C49.436 29.2389 49.3999 29.2398 49.3618 29.2398C49.138 29.2398 48.8614 29.2041 48.6655 29.0154C48.4262 28.785 48.4271 28.457 48.4279 28.1394V28.0783L48.4918 17.5157C48.4922 16.7029 48.8473 16.249 49.547 16.1669L51.7869 15.8462C52.0861 15.8045 52.5106 15.7826 52.7867 16.0491C53.0522 16.3061 53.0466 16.6977 53.0196 16.9703ZM53.5534 10.6167C53.2172 10.6167 52.8661 10.6305 52.499 10.6584L45.9788 11.1415C43.7462 11.3053 42.9672 12.695 43.0011 16.4519L43.0971 27.6885C43.1125 30.075 43.5379 31.5992 44.4361 32.4873C45.2439 33.2846 46.4882 33.6341 48.5223 33.616L52.2791 33.5834C56.3283 33.5537 56.9899 31.0821 57.3912 28.0994L58.9009 16.8624C59.1908 14.7015 58.8439 13.081 57.8702 12.0472C56.9749 11.096 55.5257 10.6167 53.5534 10.6167Z" fill="black"/>
<path id="Fill 9" fill-rule="evenodd" clip-rule="evenodd" d="M87.7952 38.9785C88.7914 40.0052 89.1546 42.4004 88.2841 45.3187C88.2785 45.3393 88.2715 45.3561 88.265 45.3755C88.2006 45.7138 88.1193 46.0591 88.0027 46.4173L85.2986 54.8009C85.112 55.4289 84.5886 56.1005 83.8421 56.1745L78.5174 56.6735L78.0611 62.9598L71.6989 63.6167L67.3256 59.955L67.3343 59.9537L67.3338 59.9602L73.8213 59.2904L73.9118 59.2809L74.3682 52.9954L79.6015 52.5051C80.398 52.4263 80.9544 51.7203 81.1511 51.057L83.8552 42.6738C84.5225 40.6213 84.3481 38.8679 83.3514 37.6036C82.1255 36.047 79.6998 35.3048 76.5181 35.5132L66.8183 36.1046L66.7257 36.1107L66.1101 42.5227L68.052 42.4577L67.4417 57.3274L67.4308 57.4079C67.0223 60.4049 66.2441 63.3334 61.7098 63.3666L57.8973 63.3984C57.8486 63.3989 57.8003 63.3989 57.7524 63.3989C57.1647 63.3989 56.5692 63.389 56.1554 63.389C54.8834 63.389 53.4874 62.8892 52.3251 62.1087C51.1692 61.333 49.2486 59.0902 48.4438 57.6541C48.6187 57.9369 48.8131 58.1939 49.038 58.413C49.9725 59.3244 51.3493 59.7303 53.5027 59.7303L57.4596 59.6976C62.0813 59.6636 62.8727 56.689 63.2872 53.6455L64.819 42.3923C65.1404 40.025 64.7306 38.2239 63.6009 37.0401C62.3963 35.7783 60.3843 35.2441 57.6284 35.449L51.0135 35.9329C47.9613 36.1533 47.3567 38.4783 47.388 41.9002L47.4854 53.1534C47.4906 53.9481 47.5472 54.6476 47.6451 55.2778C47.3841 55.732 46.9521 56.1194 46.3952 56.1745L41.0706 56.6735L40.6142 62.9598L34.252 63.6167L29.9109 59.9576L36.3745 59.2904L36.465 59.2809L36.9213 52.9954L42.1546 52.5051C42.9512 52.4263 43.5076 51.7203 43.7042 51.057L46.4083 42.6738C47.0756 40.6213 46.9012 38.8679 45.9045 37.6036C44.6791 36.047 42.2543 35.3083 39.0712 35.5132L29.371 36.1046L29.2788 36.1107L29.1813 37.1214L19.8301 37.9006L15 33.963L15.4276 33.923L21.8325 33.6565L22.6934 23.6478L24.5875 33.8502L30.359 33.4249L33.0757 23.0998L33.268 33.9535L39.866 33.4154L38.272 9.85734L38.2781 9.6167L42.4948 12.2116C42.129 13.1974 42.0228 14.4643 42.0367 15.9357L42.1342 27.1885C42.1507 29.7602 42.6445 31.4318 43.6877 32.449C44.6195 33.3573 45.9998 33.7654 48.1523 33.7654C48.2002 33.7654 48.248 33.7654 48.2963 33.7654L52.1084 33.7327C56.7297 33.6991 57.521 30.7249 57.9364 27.681L59.4677 16.4273C59.7892 14.0601 59.3794 12.2594 58.2501 11.0756C57.8194 10.6245 57.2822 10.2697 56.6492 10.005C58.6538 10.5099 61.5497 11.5121 62.874 12.7571C63.56 13.4019 63.7679 13.7661 63.8158 14.1355L61.1808 33.9423L68.0468 33.6565L68.9073 23.6478L70.8018 33.8502L76.5729 33.4249L79.29 23.0998L79.4823 33.9535L86.0803 33.4154L84.4733 9.65415L84.4472 9.6563L84.4546 9.6167L89.517 12.9413L91 37.4882L85.922 37.7749C86.7811 38.2024 87.4554 38.6277 87.7952 38.9785ZM77.5447 42.196C77.282 41.8744 76.8187 41.8541 76.4876 41.8653L74.5082 41.9786L73.9675 48.8331L75.6915 48.67C75.9786 48.67 76.3184 48.4956 76.431 48.1047L77.6374 43.459C77.7931 42.843 77.7657 42.465 77.5447 42.196ZM57.9686 41.4917C57.6867 41.2239 57.2552 41.2467 56.955 41.2881L54.6816 41.6092C53.9716 41.6919 53.6114 42.1464 53.6114 42.9601L53.5462 53.5383V53.5994C53.5453 53.9175 53.5444 54.2464 53.7872 54.4771C53.9486 54.63 54.1748 54.7014 54.4997 54.7014C54.5328 54.7014 54.5672 54.7006 54.6037 54.6993L56.0693 54.6351C57.1134 54.5934 57.1625 53.8383 57.1891 53.4354L58.2053 42.4138C58.2327 42.1413 58.2383 41.7487 57.9686 41.4917ZM40.0978 42.196C39.8351 41.8752 39.3744 41.8554 39.0407 41.8653L37.0614 41.9786L36.5206 48.8331L38.2446 48.67C38.5318 48.67 38.8715 48.4956 38.9842 48.1047L40.1905 43.459C40.3462 42.843 40.3188 42.465 40.0978 42.196ZM52.6178 15.5268C52.3377 15.2599 51.907 15.2818 51.6034 15.3236L49.3308 15.6447C48.6208 15.727 48.2606 16.1815 48.2602 16.9956L48.1954 27.5738V27.6349C48.1945 27.953 48.1936 28.2815 48.4364 28.5122C48.6352 28.7012 48.9158 28.737 49.1429 28.737C49.1816 28.737 49.2181 28.7361 49.2529 28.7344L50.7181 28.6702C51.7639 28.6285 51.8139 27.8437 51.8383 27.4666L52.854 16.4493C52.8815 16.1764 52.8871 15.7842 52.6178 15.5268Z" fill="#B52447"/>
<path id="Fill 10" fill-rule="evenodd" clip-rule="evenodd" d="M51.2023 28.2507C51.172 28.7104 51.1399 28.857 50.6705 28.8754L49.1013 28.9422C48.8085 28.9543 48.7442 28.8992 48.7419 28.8974C48.6972 28.8565 48.6981 28.6242 48.6986 28.4704L48.7679 17.3884V17.3861C48.7679 16.7556 48.9975 16.6794 49.3058 16.6444L51.7447 16.3089C51.8504 16.295 51.9347 16.2896 52.0022 16.2896C52.1834 16.2896 52.2379 16.3287 52.2486 16.3385C52.2616 16.3511 52.3249 16.4278 52.2914 16.7511L51.2097 28.1444L51.2023 28.2507ZM52.7338 15.8546C52.4339 15.5766 51.9729 15.5995 51.6479 15.643L49.2154 15.9775C48.4555 16.0632 48.07 16.5367 48.0695 17.3848L48.0001 28.4049V28.4686C47.9992 28.8 47.9982 29.1422 48.2581 29.3826C48.4709 29.5795 48.7712 29.6167 49.0143 29.6167C49.0557 29.6167 49.0948 29.6158 49.1321 29.614L50.7003 29.5472C51.8197 29.5037 51.8733 28.6861 51.8993 28.2933L52.9866 16.8157C53.0159 16.5314 53.022 16.1228 52.7338 15.8546Z" fill="#E8A84D"/>
<path id="Fill 11" fill-rule="evenodd" clip-rule="evenodd" d="M83.5092 10.6167L78.0481 11.0284L73.8888 26.1364L70.7067 10.6802L64.9197 11.1537L62 33.6167L67.4087 33.3864L68.6098 19.0954L71.2254 33.5152L75.8548 33.1657L79.5811 18.6746L79.8396 33.6055L85 33.1752L83.5092 10.6167Z" fill="black"/>
<path id="Fill 12" fill-rule="evenodd" clip-rule="evenodd" d="M75.4938 16.4888L76 14.5908L71 10.6167L73.5925 23.6167L75.4938 16.4888Z" fill="#B52447"/>
<path id="Fill 13" fill-rule="evenodd" clip-rule="evenodd" d="M58.2705 16.4247L56.7858 27.5284C56.3911 30.4757 55.7405 32.918 51.7582 32.9473L48.0635 32.9796C46.0631 32.9974 44.8394 32.6521 44.045 31.8642C43.1616 30.9867 42.7433 29.4805 42.7281 27.1224L42.6337 16.0191C42.6206 14.5801 42.7298 13.4957 42.9938 12.6942C43.4108 11.4276 44.2179 10.8712 45.5622 10.7718L51.9745 10.2944C52.3355 10.2668 52.6808 10.2532 53.0114 10.2532C54.042 10.2532 54.9233 10.3913 55.6587 10.6576C56.3072 10.8925 56.8444 11.2267 57.2568 11.6668C58.2144 12.6883 58.5556 14.2896 58.2705 16.4247ZM57.7169 11.2293C57.2994 10.7841 56.7787 10.4342 56.1651 10.1729C55.0608 9.70274 53.6473 9.52775 51.9273 9.65899L45.5158 10.1364C43.8295 10.2609 42.9153 11.0615 42.4452 12.3502C42.0905 13.3228 41.9877 14.5729 42.0011 16.0246L42.0956 27.1275C42.1116 29.6649 42.5902 31.3142 43.6014 32.3178C44.5046 33.214 45.8426 33.6167 47.929 33.6167C47.9754 33.6167 48.0218 33.6167 48.0686 33.6167L51.7637 33.5844C56.2431 33.5513 57.0102 30.6167 57.4128 27.6134L58.8971 16.5097C59.2087 14.174 58.8115 12.3973 57.7169 11.2293Z" fill="#E8A84D"/>
<path id="Fill 14" fill-rule="evenodd" clip-rule="evenodd" d="M79.754 19.2304L75.9383 33.4921L71.1979 33.8361L68.5196 19.6445L67.2896 33.7094L61.7513 33.936L64.741 11.8285L70.6668 11.3625L73.9252 26.574L78.1843 11.7052L83.7764 11.3L85.3029 33.5015L80.0187 33.9249L79.754 19.2304ZM84.3865 10.6167L84.3603 10.6188L77.6767 11.1023L74.0174 23.8784L71.2032 10.7392L71.191 10.6813L64.161 11.2341L61 34.6056L67.8937 34.3233L68.7577 24.4379L70.6598 34.5147L76.4542 34.0946L79.1823 23.8967L79.3754 34.6167L86 34.0852L84.3865 10.6167Z" fill="#E8A84D"/>
<path id="Fill 15" fill-rule="evenodd" clip-rule="evenodd" d="M39.9559 43.9135L38.7331 48.5363C38.6189 48.9252 38.2744 49.0987 37.9834 49.0987L36.2358 49.261L36.7839 42.4405L38.7904 42.3278C39.1286 42.318 39.5956 42.3377 39.862 42.6568C40.086 42.9245 40.1138 43.3006 39.9559 43.9135ZM45.2266 38.4813C44.1242 37.1076 41.8672 36.4612 38.8636 36.6484L29.4992 37.2091L29 42.3154L30.9293 42.252L30.2035 59.6167L35.5593 59.074L36.0219 52.8146L36.1149 52.806L41.8835 52.2753C42.3801 52.2269 42.7509 51.7283 42.885 51.2858L45.6288 42.9361C46.2356 41.1053 46.0963 39.5654 45.2266 38.4813Z" fill="black"/>
<path id="Fill 16" fill-rule="evenodd" clip-rule="evenodd" d="M37.7976 48.8052L36.755 48.8981L37.2181 43.3466L38.7087 43.2666C39.1229 43.2481 39.23 43.3259 39.2591 43.3596C39.3025 43.4093 39.3556 43.5667 39.2235 44.06L37.9468 48.7152C37.9343 48.7559 37.9071 48.803 37.7976 48.8052ZM39.7971 42.9506C39.5181 42.6285 39.0291 42.6086 38.675 42.6185L36.574 42.7322L36 49.6167L37.83 49.4528C38.1347 49.4528 38.4954 49.2777 38.6149 48.8851L39.8954 44.2191C40.0607 43.6004 40.0316 43.2208 39.7971 42.9506Z" fill="#E8A84D"/>
<path id="Fill 17" fill-rule="evenodd" clip-rule="evenodd" d="M58.0198 42.9702L57.0182 53.9753C56.9921 54.3777 56.9436 55.1316 55.9145 55.1733L54.47 55.2373C54.434 55.2386 54.4001 55.2395 54.3675 55.2395C54.0472 55.2395 53.8243 55.1681 53.6652 55.0155C53.4259 54.7851 53.4268 54.4568 53.4277 54.1391V54.0781L53.492 43.5156C53.492 42.7032 53.847 42.2493 54.5468 42.1668L56.7875 41.8461C57.0834 41.8049 57.5087 41.7821 57.7866 42.0494C58.0524 42.3061 58.0468 42.6981 58.0198 42.9702ZM58.5524 36.6167C58.2201 36.6167 57.8655 36.6309 57.4993 36.6588L50.9789 37.142C48.7463 37.3057 47.9668 38.695 48.0011 42.4518L48.0971 53.6891C48.1121 56.0747 48.5375 57.5993 49.4362 58.4869C50.2513 59.292 51.5145 59.638 53.5216 59.6157L57.2798 59.5834C61.3235 59.5534 62.0053 56.9726 62.3916 54.0996L63.9013 42.8627C64.1903 40.701 63.8439 39.081 62.8701 38.0472C61.9766 37.0981 60.5243 36.6167 58.5524 36.6167Z" fill="black"/>
<path id="Fill 18" fill-rule="evenodd" clip-rule="evenodd" d="M56.2025 54.2516C56.1713 54.7108 56.1396 54.857 55.6707 54.8749L54.1012 54.9418C53.8056 54.9588 53.7441 54.8996 53.7418 54.8974C53.6971 54.8561 53.698 54.6233 53.6985 54.4704L53.7683 43.3865C53.7683 42.7559 53.9997 42.6793 54.3052 42.6447L56.7444 42.3088C56.8426 42.2958 56.9292 42.2895 57.0042 42.2895C57.1811 42.2895 57.2356 42.3268 57.2486 42.3393C57.2617 42.351 57.325 42.4277 57.2915 42.7515L56.2099 54.1448L56.2025 54.2516ZM57.7333 41.855C57.4316 41.576 56.9697 41.5998 56.6485 41.6428L54.2153 41.9774C53.4555 42.0635 53.07 42.5371 53.07 43.3847L53.0001 54.4049V54.4686C52.9992 54.8 52.9982 55.1427 53.258 55.383C53.4308 55.5423 53.6729 55.6167 54.0207 55.6167C54.0561 55.6167 54.0929 55.6158 54.132 55.6145L55.7005 55.5476C56.818 55.5041 56.8706 54.7175 56.899 54.2978L57.9866 42.8156C58.0159 42.5317 58.022 42.1227 57.7333 41.855Z" fill="#E8A84D"/>
<path id="Fill 19" fill-rule="evenodd" clip-rule="evenodd" d="M77.9559 43.9135L76.7331 48.5363C76.6189 48.9252 76.2744 49.0987 75.9834 49.0987L74.2358 49.261L74.7839 42.4405L76.7904 42.3278C77.126 42.3167 77.5956 42.3368 77.862 42.6568C78.086 42.9245 78.1138 43.3006 77.9559 43.9135ZM83.2266 38.4813C82.1242 37.1076 79.8689 36.4612 76.8636 36.6484L67.4992 37.2091L67 42.3154L68.9293 42.252L68.2035 59.6167L73.5593 59.074L74.0219 52.8146L74.1149 52.806L79.8835 52.2753C80.3801 52.2269 80.7514 51.7283 80.885 51.2858L83.6288 42.9361C84.2356 41.1053 84.0963 39.5654 83.2266 38.4813Z" fill="black"/>
<path id="Fill 20" fill-rule="evenodd" clip-rule="evenodd" d="M75.7976 48.8052L74.755 48.8982L75.2181 43.347L76.7087 43.267C77.1183 43.2488 77.23 43.3266 77.2591 43.3599C77.3025 43.4097 77.3556 43.567 77.224 44.0603L75.9468 48.7153C75.9343 48.7559 75.9071 48.803 75.7976 48.8052ZM77.7971 42.9509C77.5181 42.628 77.0264 42.6077 76.675 42.6189L74.574 42.7326L74 49.6167L75.83 49.4528C76.1347 49.4528 76.4954 49.2777 76.6149 48.8852L77.8954 44.2194C78.0607 43.6007 78.0316 43.2212 77.7971 42.9509Z" fill="#E8A84D"/>
<path id="Fill 21" fill-rule="evenodd" clip-rule="evenodd" d="M29 43.6698L30.8965 45.6167L31 43.6167L29 43.6698Z" fill="#B52447"/>
<path id="Fill 22" fill-rule="evenodd" clip-rule="evenodd" d="M28.9944 42.614L29.0039 42.6266L29.0056 42.6071L28.9944 42.614Z" fill="#D91E4C"/>
<path id="Fill 23" fill-rule="evenodd" clip-rule="evenodd" d="M28.9911 42.6274L29.0089 42.627L28.9928 42.6062L28.9911 42.6274Z" fill="#FDD756"/>
<path id="Fill 24" fill-rule="evenodd" clip-rule="evenodd" d="M45.9883 42.7622L43.3027 51.3316C43.1714 51.7857 42.8084 52.2974 42.3224 52.3471L36.6762 52.8918L36.5851 52.9006L36.1323 59.3247L34.7382 59.4728L30.8901 59.8817L31.6006 42.0601L30.0381 42.1137L29.7122 42.1252L30.2008 36.8845L36.3451 36.499L36.9011 36.4642L39.3666 36.3091C42.3064 36.1169 44.5156 36.7803 45.5946 38.1902C46.4458 39.3028 46.5822 40.8832 45.9883 42.7622ZM46.1053 37.7857C44.8893 36.1961 42.4834 35.4417 39.3251 35.6509L29.7005 36.255L29.609 36.2611L29.0017 42.7679L29 42.7877L29.016 42.8088L30.9251 42.7428L30.2125 60.6167L30.2362 60.6141L36.6494 59.9327L36.7392 59.923L37.192 53.5042L42.3846 53.0034C43.1749 52.923 43.727 52.202 43.9221 51.5246L46.6051 42.9635C47.2672 40.8674 47.0941 39.0769 46.1053 37.7857Z" fill="#E8A84D"/>
<path id="Fill 25" fill-rule="evenodd" clip-rule="evenodd" d="M64.2705 42.4246L62.7858 53.5284C62.4059 56.3674 61.7354 58.9176 57.7586 58.9473L54.0627 58.9792C53.4651 58.9859 52.9414 58.9545 52.47 58.8921C51.3842 58.7481 50.6037 58.4185 50.0449 57.8638C49.2514 57.0763 48.836 55.7757 48.7483 53.8142C48.7382 53.5904 48.7297 53.364 48.7281 53.1227L48.6336 42.0185C48.5999 38.3062 49.3665 36.9334 51.5621 36.7716L57.9745 36.2942C58.3346 36.2666 58.6834 36.2526 59.0102 36.2526C60.9494 36.2526 62.3776 36.7283 63.2564 37.6661C64.214 38.6876 64.5547 40.2885 64.2705 42.4246ZM63.7165 37.2286C62.5488 35.9837 60.5986 35.4566 57.9273 35.6588L51.5153 36.1362C48.5569 36.3537 47.9707 38.6477 48.0011 42.024L48.0956 53.1274C48.1006 53.9115 48.1554 54.6017 48.2503 55.2235C48.3954 56.169 48.6475 56.9361 49.0135 57.5473C49.0131 57.5469 49.0123 57.5461 49.0114 57.5456C49.0156 57.5533 49.0203 57.5609 49.0245 57.5681C49.194 57.8472 49.3825 58.1008 49.6005 58.317C50.5063 59.2162 51.8409 59.6167 53.9281 59.6167L57.7637 59.5844C62.2435 59.5509 63.0106 56.6159 63.4124 53.6129L64.8971 42.5095C65.2088 40.1738 64.8115 38.3967 63.7165 37.2286Z" fill="#E8A84D"/>
<path id="Fill 26" fill-rule="evenodd" clip-rule="evenodd" d="M82.9884 42.7628L80.303 51.3319C80.1722 51.786 79.8088 52.2977 79.3229 52.3474L73.6772 52.8921L73.5861 52.9009L73.1334 59.3247L71.7393 59.4729L67.8917 59.8817L68.6021 42.0608L68.2961 42.0718L66.7139 42.1258L67.2024 36.8854L76.3673 36.3099C79.3086 36.1178 81.5158 36.7812 82.5948 38.191C83.4459 39.3036 83.5823 40.884 82.9884 42.7628ZM83.1054 37.7866C81.8891 36.197 79.4826 35.4391 76.3259 35.6519L66.7026 36.2559L66.6107 36.262L66 42.8099L67.9266 42.7435L67.2145 60.6101L67.2141 60.6167L73.6504 59.9327L73.7402 59.923L74.1929 53.5044L79.385 53.0037C80.1753 52.9233 80.7273 52.2023 80.9223 51.5249L83.6051 42.9642C84.2672 40.8681 84.0941 39.0777 83.1054 37.7866Z" fill="#E8A84D"/>
<path id="Fill 27" fill-rule="evenodd" clip-rule="evenodd" d="M15.5374 40.9368L15 54.6167L18.2613 54.3531L18.3511 47.6826L21.8636 54.5414L24.4626 54.2022L25 40.6167L21.8636 40.9747L21.7204 48.0219L18.2258 40.6732L15.5374 40.9368Z" fill="#FFFFFE"/>
<path id="Fill 28" fill-rule="evenodd" clip-rule="evenodd" d="M20.9479 43.6167L21 40.5144C20.8107 40.3033 20.6317 40.1311 20.4639 40.0044L20.4716 39.9973L19 38.6167V38.6172L20.9479 43.6167Z" fill="#1A1919"/>
<path id="Fill 29" fill-rule="evenodd" clip-rule="evenodd" d="M11 46.7656C11 48.6584 11.9962 50.3685 13.6024 51.6167L14 41.6167C12.1601 42.8826 11 44.7192 11 46.7656Z" fill="#1A1919"/>
<path id="Fill 30" fill-rule="evenodd" clip-rule="evenodd" d="M27.8843 43.3471L27.976 41.1499L26.6375 39.6167V39.8137L26.0137 54.7827L25.2615 54.8759L22.6069 55.205L22 55.2801L23.3385 56.6167L23.9454 56.5412L26.5999 56.2121L27.3522 56.1189L27.517 52.1602C29.0537 50.9755 30 49.3714 30 47.6028C30 45.9802 29.2025 44.4964 27.8843 43.3471Z" fill="#1A1919"/>
<path id="Fill 31" fill-rule="evenodd" clip-rule="evenodd" d="M19.5355 53.877L19.5228 54.7542L18.6497 54.8209L15.0765 55.0964L14 55.1794L15.4355 56.6167L16.5121 56.5341L20.0853 56.2582L20.9583 56.1915L21 53.2539L19.5812 50.6167L19.5355 53.877Z" fill="#1A1919"/>
<path id="Fill 32" fill-rule="evenodd" clip-rule="evenodd" d="M24.5248 53.2248L21.889 53.5593L18.3267 46.7981L18.2357 53.3736L15.4249 53.5949L14.9281 53.6335L15.4731 40.1483L18.1996 39.8885L21.7438 47.1325L21.889 40.1857L25.0698 39.8328L24.5248 53.2248ZM24.9741 38.7162L21.7937 39.0691L21.0183 39.1553L21.0015 40.1659L20.9327 43.4462L18.7224 38.9276V38.9271L18.1169 38.9846L15.3909 39.2449L14.618 39.3186L14 54.6167L14.9965 54.5382L18.3041 54.278L19.1122 54.2149L19.1663 50.3056L21.3959 54.5361L21.9985 54.4598L24.6338 54.1253L25.3807 54.0305L26 38.8169V38.6167L24.9741 38.7162Z" fill="black"/>
<path id="Fill 33" fill-rule="evenodd" clip-rule="evenodd" d="M50.5618 65.6167C40.6861 65.6167 32.5319 69.3862 31.2521 74.2738C24.3794 74.6675 20 75.9296 20 75.9296C20 75.9296 24.4674 77.2026 31.4558 77.5963C33.2464 82.171 41.1188 85.6167 50.5618 85.6167C59.9708 85.6167 67.8221 82.1957 69.6494 77.6453C77.1499 77.253 82 75.9296 82 75.9296C82 75.9296 77.2388 74.618 69.8591 74.2252C68.5388 69.3615 60.4044 65.6167 50.5618 65.6167Z" fill="#B52447"/>
<path id="Fill 34" fill-rule="evenodd" clip-rule="evenodd" d="M50.46 86.2595C41.0053 86.2595 33.1231 82.7644 31.3303 78.1244C24.3333 77.7251 19.8604 76.4339 19.8604 76.4339C19.8604 76.4339 24.2452 75.1537 31.1264 74.7544C32.4077 69.7969 40.572 65.9735 50.46 65.9735C60.3147 65.9735 68.4591 69.7718 69.7811 74.7051C77.1699 75.1035 81.937 76.4339 81.937 76.4339C81.937 76.4339 77.0809 77.7762 69.5711 78.1741C67.7416 82.7895 59.8806 86.2595 50.46 86.2595ZM82.2886 75.1251C82.0964 75.0714 77.6775 73.8559 70.7401 73.4033C68.565 68.2579 60.2966 64.6167 50.46 64.6167C40.5729 64.6167 32.2967 68.2803 30.1579 73.4575C23.7242 73.9118 19.6703 75.0775 19.4936 75.1295L15 76.4405L19.4975 77.7392C19.6785 77.7916 23.8555 78.9802 30.4586 79.4292C33.0069 84.2899 41.0274 87.6167 50.46 87.6167C59.8438 87.6167 67.8539 84.3114 70.4334 79.4829C77.5449 79.0361 82.0891 77.7973 82.2856 77.7431L87 76.4396L82.2886 75.1251Z" fill="#FFFFFE"/>
<path id="Fill 35" fill-rule="evenodd" clip-rule="evenodd" d="M64.1895 75.6151C64.5284 75.1389 64.7107 74.5441 64.7107 73.8687C64.7107 72.3687 63.6817 70.6167 60.783 70.6167H37.8536C37.3824 70.6167 37 70.9964 37 71.4648V80.5341C37 81.0403 37.413 81.4504 37.9221 81.4504H45.7358C46.2734 81.4504 46.7097 81.0167 46.7097 80.4823V79.1186C47.3145 80.7433 48.8109 81.6167 51.0694 81.6167C53.5194 81.6167 55.0834 80.6186 55.6059 78.774V80.3829C55.6059 80.9726 56.087 81.4504 56.6802 81.4504H60.7218C63.3209 81.4504 65 80.0096 65 77.7793C65 76.935 64.7107 76.1863 64.1895 75.6151Z" fill="black"/>
<path id="Fill 36" fill-rule="evenodd" clip-rule="evenodd" d="M38 71.6167H40.3271V74.9699H42.6648V71.6167H45V80.6167H42.6648V76.9036H40.3271V80.6167H38V71.6167Z" fill="#FFFFFE"/>
<path id="Fill 37" fill-rule="evenodd" clip-rule="evenodd" d="M49.322 71.6167V77.3429C49.322 78.1237 49.5223 78.8324 50.5079 78.8324C51.4691 78.8324 51.6618 78.1527 51.6618 77.3429V71.6167H54V77.2597C54 79.3175 53.0136 80.6167 50.4673 80.6167C47.9372 80.6167 47 79.3039 47 77.2546V71.6167H49.322Z" fill="#FFFFFE"/>
<path id="Fill 38" fill-rule="evenodd" clip-rule="evenodd" d="M59.3224 78.966H60.3891C61.0266 78.966 61.5438 78.6669 61.5438 77.8459C61.5438 77.0962 61.1449 76.7132 60.2901 76.7132H59.3224V78.966ZM60.3115 75.099C61.0681 75.099 61.394 74.84 61.394 74.1919C61.394 73.5565 60.9922 73.2757 60.3643 73.2757H59.3224V75.099H60.3115ZM57 71.6167H60.8559C62.9413 71.6167 63.7177 72.7398 63.7177 73.9211C63.7177 74.9786 63.1649 75.5123 62.5827 75.7501C63.2517 76.0209 64 76.6589 64 77.8872C64 79.5349 62.8293 80.6167 60.7963 80.6167H57V71.6167Z" fill="#FFFFFE"/>
</g>
</svg>
